<svg width="109" height="212" viewBox="0 0 109 212" fill="none" xmlns="http://www.w3.org/2000/svg">
<rect x="0.195312" y="0.408203" width="107.983" height="210.662" rx="15.1556" fill="white"/>
<path d="M40.2083 103.901L44.2917 99.8174L55.5208 111.047L62.6667 103.901L68.7917 110.026V91.4466H40.2083V103.901ZM38.1667 87.3633H70.8333C71.3748 87.3633 71.8941 87.5784 72.277 87.9613C72.6599 88.3442 72.875 88.8635 72.875 89.4049V122.072C72.875 122.613 72.6599 123.132 72.277 123.515C71.8941 123.898 71.3748 124.113 70.8333 124.113H38.1667C37.6252 124.113 37.1059 123.898 36.723 123.515C36.3401 123.132 36.125 122.613 36.125 122.072V89.4049C36.125 88.8635 36.3401 88.3442 36.723 87.9613C37.1059 87.5784 37.6252 87.3633 38.1667 87.3633V87.3633ZM61.6458 101.655C60.8336 101.655 60.0546 101.332 59.4803 100.758C58.906 100.184 58.5833 99.4047 58.5833 98.5924C58.5833 97.7802 58.906 97.0013 59.4803 96.4269C60.0546 95.8526 60.8336 95.5299 61.6458 95.5299C62.4581 95.5299 63.237 95.8526 63.8113 96.4269C64.3857 97.0013 64.7083 97.7802 64.7083 98.5924C64.7083 99.4047 64.3857 100.184 63.8113 100.758C63.237 101.332 62.4581 101.655 61.6458 101.655V101.655Z" fill="#2352D5"/>
</svg>
