<svg width="153" height="152" viewBox="0 0 153 152" fill="none" xmlns="http://www.w3.org/2000/svg">
<rect x="0.979492" y="0.525391" width="151.388" height="151.388" rx="15.1388" fill="#2352D5"/>
<path d="M62.2083 59.9047L66.2917 55.8214L77.5208 67.0505L84.6667 59.9047L90.7917 66.0297V47.4505H62.2083V59.9047ZM60.1667 43.3672H92.8333C93.3748 43.3672 93.8941 43.5823 94.277 43.9652C94.6599 44.3481 94.875 44.8674 94.875 45.4089V78.0755C94.875 78.617 94.6599 79.1363 94.277 79.5192C93.8941 79.9021 93.3748 80.1172 92.8333 80.1172H60.1667C59.6252 80.1172 59.1059 79.9021 58.723 79.5192C58.3401 79.1363 58.125 78.617 58.125 78.0755V45.4089C58.125 44.8674 58.3401 44.3481 58.723 43.9652C59.1059 43.5823 59.6252 43.3672 60.1667 43.3672V43.3672ZM83.6458 57.6589C82.8336 57.6589 82.0546 57.3362 81.4803 56.7619C80.906 56.1875 80.5833 55.4086 80.5833 54.5964C80.5833 53.7841 80.906 53.0052 81.4803 52.4308C82.0546 51.8565 82.8336 51.5339 83.6458 51.5339C84.4581 51.5339 85.237 51.8565 85.8113 52.4308C86.3857 53.0052 86.7083 53.7841 86.7083 54.5964C86.7083 55.4086 86.3857 56.1875 85.8113 56.7619C85.237 57.3362 84.4581 57.6589 83.6458 57.6589V57.6589Z" fill="white"/>
</svg>
