<svg width="81" height="81" viewBox="0 0 81 81" fill="none" xmlns="http://www.w3.org/2000/svg">
<rect x="0.28418" y="0.212891" width="80.0305" height="80.0305" rx="15.2439" fill="#828282"/>
<path d="M28.9167 38.575L32.0833 35.4083L40.7917 44.1167L46.3333 38.575L51.0833 43.325V28.9167H28.9167V38.575ZM27.3333 25.75H52.6667C53.0866 25.75 53.4893 25.9168 53.7863 26.2137C54.0832 26.5107 54.25 26.9134 54.25 27.3333V52.6667C54.25 53.0866 54.0832 53.4893 53.7863 53.7863C53.4893 54.0832 53.0866 54.25 52.6667 54.25H27.3333C26.9134 54.25 26.5107 54.0832 26.2137 53.7863C25.9168 53.4893 25.75 53.0866 25.75 52.6667V27.3333C25.75 26.9134 25.9168 26.5107 26.2137 26.2137C26.5107 25.9168 26.9134 25.75 27.3333 25.75V25.75ZM45.5417 36.8333C44.9118 36.8333 44.3077 36.5831 43.8623 36.1377C43.4169 35.6923 43.1667 35.0882 43.1667 34.4583C43.1667 33.8284 43.4169 33.2244 43.8623 32.779C44.3077 32.3336 44.9118 32.0833 45.5417 32.0833C46.1716 32.0833 46.7756 32.3336 47.221 32.779C47.6664 33.2244 47.9167 33.8284 47.9167 34.4583C47.9167 35.0882 47.6664 35.6923 47.221 36.1377C46.7756 36.5831 46.1716 36.8333 45.5417 36.8333V36.8333Z" fill="#E8E8E8"/>
</svg>
