<svg width="133" height="134" viewBox="0 0 133 134" fill="none" xmlns="http://www.w3.org/2000/svg">
<rect x="0.0800781" y="0.621094" width="132.622" height="132.622" rx="15.2439" fill="white"/>
<path d="M52.2083 64.6625L56.2917 60.5792L67.5208 71.8083L74.6667 64.6625L80.7917 70.7875V52.2083H52.2083V64.6625ZM50.1667 48.125H82.8333C83.3748 48.125 83.8941 48.3401 84.277 48.723C84.6599 49.1059 84.875 49.6252 84.875 50.1667V82.8333C84.875 83.3748 84.6599 83.8941 84.277 84.277C83.8941 84.6599 83.3748 84.875 82.8333 84.875H50.1667C49.6252 84.875 49.1059 84.6599 48.723 84.277C48.3401 83.8941 48.125 83.3748 48.125 82.8333V50.1667C48.125 49.6252 48.3401 49.1059 48.723 48.723C49.1059 48.3401 49.6252 48.125 50.1667 48.125V48.125ZM73.6458 62.4167C72.8336 62.4167 72.0546 62.094 71.4803 61.5197C70.906 60.9454 70.5833 60.1664 70.5833 59.3542C70.5833 58.5419 70.906 57.763 71.4803 57.1887C72.0546 56.6143 72.8336 56.2917 73.6458 56.2917C74.4581 56.2917 75.237 56.6143 75.8113 57.1887C76.3857 57.763 76.7083 58.5419 76.7083 59.3542C76.7083 60.1664 76.3857 60.9454 75.8113 61.5197C75.237 62.094 74.4581 62.4167 73.6458 62.4167V62.4167Z" fill="#2352D5"/>
</svg>
