<svg width="219" height="124" viewBox="0 0 219 124" fill="none" xmlns="http://www.w3.org/2000/svg">
<g opacity="0.8">
<rect x="0.169922" y="0.765625" width="217.985" height="122.57" rx="15.0855" fill="#F2F2F2"/>
<path d="M94.5892 59.9027L98.6725 55.8194L109.902 67.0486L117.048 59.9027L123.173 66.0277V47.4486H94.5892V59.9027ZM92.5475 43.3652H125.214C125.756 43.3652 126.275 43.5803 126.658 43.9632C127.041 44.3461 127.256 44.8654 127.256 45.4069V78.0736C127.256 78.6151 127.041 79.1344 126.658 79.5172C126.275 79.9001 125.756 80.1152 125.214 80.1152H92.5475C92.006 80.1152 91.4867 79.9001 91.1038 79.5172C90.721 79.1344 90.5059 78.6151 90.5059 78.0736V45.4069C90.5059 44.8654 90.721 44.3461 91.1038 43.9632C91.4867 43.5803 92.006 43.3652 92.5475 43.3652V43.3652ZM116.027 57.6569C115.214 57.6569 114.436 57.3342 113.861 56.7599C113.287 56.1856 112.964 55.4066 112.964 54.5944C112.964 53.7822 113.287 53.0032 113.861 52.4289C114.436 51.8546 115.214 51.5319 116.027 51.5319C116.839 51.5319 117.618 51.8546 118.192 52.4289C118.767 53.0032 119.089 53.7822 119.089 54.5944C119.089 55.4066 118.767 56.1856 118.192 56.7599C117.618 57.3342 116.839 57.6569 116.027 57.6569V57.6569Z" fill="#2352D5"/>
</g>
</svg>
