<svg width="211" height="210" viewBox="0 0 211 210" fill="none" xmlns="http://www.w3.org/2000/svg">
<rect x="0.888672" y="0.550781" width="209.222" height="209.222" rx="14.9444" fill="#2352D5"/>
<path d="M91.2083 103.143L95.2917 99.0596L106.521 110.289L113.667 103.143L119.792 109.268V90.6888H91.2083V103.143ZM89.1667 86.6055H121.833C122.375 86.6055 122.894 86.8206 123.277 87.2035C123.66 87.5863 123.875 88.1057 123.875 88.6471V121.314C123.875 121.855 123.66 122.375 123.277 122.757C122.894 123.14 122.375 123.355 121.833 123.355H89.1667C88.6252 123.355 88.1059 123.14 87.723 122.757C87.3401 122.375 87.125 121.855 87.125 121.314V88.6471C87.125 88.1057 87.3401 87.5863 87.723 87.2035C88.1059 86.8206 88.6252 86.6055 89.1667 86.6055V86.6055ZM112.646 100.897C111.834 100.897 111.055 100.574 110.48 100C109.906 99.4258 109.583 98.6469 109.583 97.8346C109.583 97.0224 109.906 96.2435 110.48 95.6691C111.055 95.0948 111.834 94.7721 112.646 94.7721C113.458 94.7721 114.237 95.0948 114.811 95.6691C115.386 96.2435 115.708 97.0224 115.708 97.8346C115.708 98.6469 115.386 99.4258 114.811 100C114.237 100.574 113.458 100.897 112.646 100.897V100.897Z" fill="white"/>
</svg>
