<svg width="153" height="152" viewBox="0 0 153 152" fill="none" xmlns="http://www.w3.org/2000/svg">
<rect x="0.979492" y="0.0253906" width="151.388" height="151.388" rx="15.1388" fill="white"/>
<path d="M62.2083 73.9047L66.2917 69.8214L77.5208 81.0505L84.6667 73.9047L90.7917 80.0297V61.4505H62.2083V73.9047ZM60.1667 57.3672H92.8333C93.3748 57.3672 93.8941 57.5823 94.277 57.9652C94.6599 58.3481 94.875 58.8674 94.875 59.4089V92.0755C94.875 92.617 94.6599 93.1363 94.277 93.5192C93.8941 93.9021 93.3748 94.1172 92.8333 94.1172H60.1667C59.6252 94.1172 59.1059 93.9021 58.723 93.5192C58.3401 93.1363 58.125 92.617 58.125 92.0755V59.4089C58.125 58.8674 58.3401 58.3481 58.723 57.9652C59.1059 57.5823 59.6252 57.3672 60.1667 57.3672V57.3672ZM83.6458 71.6589C82.8336 71.6589 82.0546 71.3362 81.4803 70.7619C80.906 70.1875 80.5833 69.4086 80.5833 68.5964C80.5833 67.7841 80.906 67.0052 81.4803 66.4308C82.0546 65.8565 82.8336 65.5339 83.6458 65.5339C84.4581 65.5339 85.237 65.8565 85.8113 66.4308C86.3857 67.0052 86.7083 67.7841 86.7083 68.5964C86.7083 69.4086 86.3857 70.1875 85.8113 70.7619C85.237 71.3362 84.4581 71.6589 83.6458 71.6589V71.6589Z" fill="#2352D5"/>
</svg>
