<svg width="308" height="214" viewBox="0 0 308 214" fill="none" xmlns="http://www.w3.org/2000/svg">
<rect x="0.0634766" y="0.195312" width="307.732" height="213.111" rx="15.2222" fill="white"/>
<g clip-path="url(#clip0_748_100135)">
<path d="M161.286 92.9062C162.275 92.9062 163.078 93.7089 163.078 94.6979V102.223L172.418 95.6833C172.823 95.4003 173.382 95.4988 173.667 95.9055C173.77 96.056 173.828 96.2352 173.828 96.4179V118.061C173.828 118.556 173.426 118.957 172.932 118.957C172.747 118.957 172.568 118.9 172.418 118.796L163.078 112.256V119.781C163.078 120.77 162.275 121.573 161.286 121.573H136.203C135.214 121.573 134.411 120.77 134.411 119.781V94.6979C134.411 93.7089 135.214 92.9062 136.203 92.9062H161.286ZM146.953 100.073V105.448H141.578V109.031H146.951L146.953 114.406H150.536L150.534 109.031H155.911V105.448H150.536V100.073H146.953Z" fill="#2352D5"/>
</g>
<defs>
<clipPath id="clip0_748_100135">
<rect width="43" height="43" fill="white" transform="translate(132.619 85.7402)"/>
</clipPath>
</defs>
</svg>
