<svg width="20" height="21" viewBox="0 0 20 21" fill="none" xmlns="http://www.w3.org/2000/svg">
<path d="M5 5.15137V1.15137C5 0.886151 5.10536 0.631797 5.29289 0.44426C5.48043 0.256724 5.73478 0.151367 6 0.151367H19C19.2652 0.151367 19.5196 0.256724 19.7071 0.44426C19.8946 0.631797 20 0.886151 20 1.15137V14.1514C20 14.4166 19.8946 14.6709 19.7071 14.8585C19.5196 15.046 19.2652 15.1514 19 15.1514H15V19.1444C15 19.7004 14.551 20.1514 13.993 20.1514H1.007C0.874722 20.1515 0.743717 20.1255 0.621483 20.075C0.499248 20.0244 0.388185 19.9503 0.294651 19.8567C0.201116 19.7632 0.126946 19.6521 0.0763858 19.5299C0.0258259 19.4077 -0.000131057 19.2766 4.9756e-07 19.1444L0.00300052 6.15837C0.00300052 5.60237 0.452 5.15137 1.01 5.15137H5ZM7 5.15137H13.993C14.549 5.15137 15 5.60037 15 6.15837V13.1514H18V2.15137H7V5.15137ZM6.503 16.1514L12.159 10.4944L10.745 9.08037L6.503 13.3234L4.38 11.2014L2.966 12.6154L6.503 16.1514Z" fill="#2352D5"/>
</svg>
