<svg width="24" height="27" viewBox="0 0 24 27" fill="none" xmlns="http://www.w3.org/2000/svg">
<path d="M11.5533 16.0941V25.4971H0.738281C0.738281 24.1531 1.02828 22.8241 1.58928 21.5981C2.15028 20.3731 2.96928 19.2791 3.99228 18.3901C5.01528 17.5001 6.21928 16.8361 7.52228 16.4401C8.82628 16.0441 10.2003 15.9261 11.5533 16.0941ZM10.3513 14.8361C6.36828 14.8361 3.14128 11.6561 3.14128 7.72907C3.14128 3.80207 6.36828 0.62207 10.3513 0.62207C14.3353 0.62207 17.5623 3.80207 17.5623 7.72907C17.5623 11.6561 14.3353 14.8361 10.3513 14.8361ZM17.3133 23.0261L21.5613 18.8391L23.2613 20.5141L17.3133 26.3781L13.0643 22.1891L14.7643 20.5141L17.3123 23.0261H17.3133Z" fill="#2352D5"/>
</svg>
