<svg width="30" height="30" viewBox="0 0 30 30" fill="none" xmlns="http://www.w3.org/2000/svg">
<path d="M15 13.5045C16.983 13.5045 18.885 14.2925 20.288 15.6945C21.69 17.0975 22.478 18.9995 22.478 20.9825V29.9565H7.52097V20.9825C7.52097 18.9995 8.30896 17.0975 9.71196 15.6945C11.114 14.2925 13.016 13.5045 15 13.5045ZM4.96096 18.0005C4.72296 18.8035 4.58197 19.6315 4.54197 20.4685L4.52996 20.9825V29.9565H0.0429688V23.2265C0.0429688 21.9365 0.518967 20.6915 1.37997 19.7315C2.24097 18.7705 3.42597 18.1615 4.70797 18.0215L4.96096 18.0005ZM25.039 18.0005C26.37 18.0815 27.619 18.6675 28.533 19.6385C29.447 20.6095 29.956 21.8925 29.956 23.2265V29.9565H25.469V20.9825C25.469 19.9465 25.32 18.9455 25.039 18.0005ZM5.27797 9.01746C6.26997 9.01746 7.22097 9.41146 7.92197 10.1125C8.62297 10.8135 9.01696 11.7645 9.01696 12.7565C9.01696 13.7485 8.62297 14.6995 7.92197 15.4005C7.22097 16.1015 6.26997 16.4955 5.27797 16.4955C4.28597 16.4955 3.33497 16.1015 2.63397 15.4005C1.93297 14.6995 1.53897 13.7485 1.53897 12.7565C1.53897 11.7645 1.93297 10.8135 2.63397 10.1125C3.33497 9.41146 4.28597 9.01746 5.27797 9.01746ZM24.722 9.01746C25.713 9.01746 26.664 9.41146 27.365 10.1125C28.067 10.8135 28.461 11.7645 28.461 12.7565C28.461 13.7485 28.067 14.6995 27.365 15.4005C26.664 16.1015 25.713 16.4955 24.722 16.4955C23.73 16.4955 22.779 16.1015 22.078 15.4005C21.376 14.6995 20.982 13.7485 20.982 12.7565C20.982 11.7645 21.376 10.8135 22.078 10.1125C22.779 9.41146 23.73 9.01746 24.722 9.01746ZM15 0.043457C16.586 0.043457 18.108 0.673456 19.23 1.79546C20.352 2.91746 20.982 4.43946 20.982 6.02645C20.982 7.61245 20.352 9.13445 19.23 10.2565C18.108 11.3785 16.586 12.0085 15 12.0085C13.413 12.0085 11.891 11.3785 10.769 10.2565C9.64697 9.13445 9.01696 7.61245 9.01696 6.02645C9.01696 4.43946 9.64697 2.91746 10.769 1.79546C11.891 0.673456 13.413 0.043457 15 0.043457Z" fill="#2352D5"/>
</svg>
