<svg width="5" height="8" viewBox="0 0 5 8" fill="none" xmlns="http://www.w3.org/2000/svg">
<g clip-path="url(#clip0_668_5265)">
<path d="M0.0878906 1.77637H1.01309V2.70157H0.0878906V1.77637Z" fill="white"/>
<path d="M1.01309 2.70157H1.93829V3.62677H1.01309V2.70157Z" fill="white"/>
<path d="M1.93829 3.62677H2.86349V4.55197H1.93829V3.62677Z" fill="white"/>
<path d="M2.86349 2.70157H3.78869V3.62677H2.86349L2.86349 2.70157Z" fill="white"/>
<path d="M3.78869 1.77637H4.71389V2.70157H3.78869V1.77637Z" fill="white"/>
<path d="M1.01309 4.55196L1.93829 4.55197V5.47716H1.01309V4.55196Z" fill="white"/>
<path d="M0.0878906 5.47716H1.01309V6.40236H0.0878906V5.47716Z" fill="white"/>
<path d="M2.86349 3.62677H3.78869V4.55197H2.86349V3.62677Z" fill="white"/>
<path d="M3.78869 3.62677H4.71389V4.55197H3.78869V3.62677Z" fill="white"/>
<path d="M1.01309 3.62677H1.93829V4.55197L1.01309 4.55196V3.62677Z" fill="white"/>
<path d="M0.0878906 3.62677H1.01309V4.55196L0.0878906 4.55197V3.62677Z" fill="white"/>
<path d="M1.93829 4.55197H2.86349V5.47716H1.93829V4.55197Z" fill="white"/>
<path d="M1.93829 5.47716H2.86349V6.40236H1.93829V5.47716Z" fill="white"/>
<path d="M2.86349 4.55197H3.78869V5.47716H2.86349V4.55197Z" fill="white"/>
<path d="M3.78869 5.47716H4.71389V6.40236H3.78869V5.47716Z" fill="white"/>
<path d="M1.93829 2.70157H2.86349L2.86349 3.62677H1.93829V2.70157Z" fill="white"/>
<path d="M1.93829 1.77637H2.86349L2.86349 2.70157H1.93829V1.77637Z" fill="white"/>
</g>
<defs>
<clipPath id="clip0_668_5265">
<rect width="4.626" height="4.626" fill="white" transform="translate(0.0878906 1.77637)"/>
</clipPath>
</defs>
</svg>
