<svg width="45" height="44" viewBox="0 0 45 44" fill="none" xmlns="http://www.w3.org/2000/svg">
<g clip-path="url(#clip0_710_5164)">
<path d="M15.1663 33H33.9342L37.1663 35.5392V16.5H38.9997C39.4859 16.5 39.9522 16.6932 40.296 17.037C40.6399 17.3808 40.833 17.8471 40.833 18.3333V43.0833L32.6655 36.6667H16.9997C16.5134 36.6667 16.0471 36.4735 15.7033 36.1297C15.3595 35.7859 15.1663 35.3196 15.1663 34.8333V33ZM10.5005 29.3333L2.33301 35.75V7.33333C2.33301 6.8471 2.52616 6.38079 2.86998 6.03697C3.2138 5.69315 3.68011 5.5 4.16634 5.5H31.6663C32.1526 5.5 32.6189 5.69315 32.9627 6.03697C33.3065 6.38079 33.4997 6.8471 33.4997 7.33333V29.3333H10.5005Z" fill="#2352D5"/>
</g>
<defs>
<clipPath id="clip0_710_5164">
<rect width="44" height="44" fill="white" transform="translate(0.5)"/>
</clipPath>
</defs>
</svg>
