<svg width="20" height="20" viewBox="0 0 20 20" fill="none" xmlns="http://www.w3.org/2000/svg">
<path d="M3.63596 10.7074L5.46396 12.5364L6.87996 11.1204L5.04996 9.29344L6.46396 7.87943L8.29296 9.70743L9.70696 8.29344L7.87996 6.46443L9.29396 5.05044L11.12 6.88043L12.535 5.46544L10.706 3.63743L13.535 0.809435C13.7225 0.621964 13.9768 0.516649 14.242 0.516649C14.5071 0.516649 14.7614 0.621964 14.949 0.809435L19.191 5.05143C19.3784 5.23896 19.4837 5.49327 19.4837 5.75843C19.4837 6.0236 19.3784 6.27791 19.191 6.46544L6.46396 19.1924C6.27643 19.3799 6.02212 19.4852 5.75696 19.4852C5.49179 19.4852 5.23749 19.3799 5.04996 19.1924L0.807959 14.9504C0.620488 14.7629 0.515172 14.5086 0.515172 14.2434C0.515172 13.9783 0.620488 13.724 0.807959 13.5364L3.63596 10.7074ZM12.121 16.3634L16.364 12.1214L19 14.7574V19.0004H14.758L12.121 16.3634ZM3.63596 7.87844L0.806958 5.05044C0.713982 4.95756 0.640223 4.84727 0.589899 4.72588C0.539575 4.60448 0.513672 4.47435 0.513672 4.34294C0.513672 4.21152 0.539575 4.08139 0.589899 3.95999C0.640223 3.8386 0.713982 3.72831 0.806958 3.63544L3.63596 0.807435C3.82349 0.619964 4.07779 0.514648 4.34296 0.514648C4.60812 0.514648 4.86243 0.619964 5.04996 0.807435L7.87996 3.63544L3.63596 7.87844Z" fill="white"/>
</svg>
