<svg width="82" height="81" viewBox="0 0 82 81" fill="none" xmlns="http://www.w3.org/2000/svg">
<path d="M67.6684 7.16422C69.5085 7.16422 71.002 8.65768 71.002 10.4978V23.0222L41.0028 53.0247L40.9828 67.1526L55.1373 67.1726L71.002 51.3079V70.5029C71.002 72.343 69.5085 73.8365 67.6684 73.8365H14.3305C12.4904 73.8365 10.9969 72.343 10.9969 70.5029V10.4978C10.9969 8.65768 12.4904 7.16422 14.3305 7.16422H67.6684ZM73.5955 29.8595L78.3092 34.5732L52.3804 60.502L47.66 60.4954L47.6667 55.7883L73.5955 29.8595ZM40.9995 40.5004H24.3314V47.1676H40.9995V40.5004ZM51.0003 27.1659H24.3314V33.8331H51.0003V27.1659Z" fill="#2352D5"/>
</svg>
