<svg width="38" height="37" viewBox="0 0 38 37" fill="none" xmlns="http://www.w3.org/2000/svg">
<path d="M0.542969 18.4999H37.456V35.1109C37.456 35.5999 37.261 36.0699 36.915 36.4159C36.569 36.7619 36.1 36.9559 35.61 36.9559H2.38897C1.89897 36.9559 1.42997 36.7619 1.08397 36.4159C0.737969 36.0699 0.542969 35.5999 0.542969 35.1109V18.4999ZM28.228 3.73495H35.61C36.1 3.73495 36.569 3.92895 36.915 4.27495C37.261 4.62195 37.456 5.09095 37.456 5.58095V14.8089H0.542969V5.58095C0.542969 5.09095 0.737969 4.62195 1.08397 4.27495C1.42997 3.92895 1.89897 3.73495 2.38897 3.73495H9.77097V0.0439453H13.463V3.73495H24.536V0.0439453H28.228V3.73495Z" fill="#2352D5"/>
</svg>
