<svg width="40" height="33" viewBox="0 0 40 33" fill="none" xmlns="http://www.w3.org/2000/svg">
<path d="M14.9986 15.7787H18.7056C20.7446 15.7787 22.6996 16.5977 24.1416 18.0567C25.5826 19.5147 26.3926 21.4927 26.3926 23.5557H14.4326L14.4346 25.2837H28.1016V23.5557C28.0956 21.7167 27.5706 19.9177 26.5876 18.3707H31.5176C33.1326 18.3707 34.7146 18.8327 36.0796 19.7047C37.4456 20.5767 38.5386 21.8227 39.2326 23.2977C35.1926 28.6917 28.6516 32.1967 21.2676 32.1967C16.5516 32.1967 12.5556 31.1767 9.30958 29.3877V13.3087C11.3876 13.6107 13.3506 14.4627 14.9986 15.7787ZM5.89258 11.4577C6.31158 11.4587 6.71558 11.6137 7.02758 11.8947C7.34058 12.1757 7.54058 12.5637 7.58958 12.9837L7.60158 13.1867V28.7397C7.60158 29.1987 7.42158 29.6377 7.10058 29.9617C6.78058 30.2857 6.34558 30.4677 5.89258 30.4677H2.47658C2.02358 30.4677 1.58858 30.2857 1.26858 29.9617C0.947578 29.6377 0.767578 29.1987 0.767578 28.7397V13.1867C0.767578 12.7277 0.947578 12.2887 1.26858 11.9647C1.58858 11.6407 2.02358 11.4577 2.47658 11.4577H5.89258ZM22.3716 2.08272L22.9766 2.69672L23.5806 2.08472C23.9766 1.68072 24.4476 1.35972 24.9666 1.14072C25.4856 0.920716 26.0426 0.807717 26.6046 0.805717C27.1676 0.804717 27.7246 0.916716 28.2446 1.13372C28.7646 1.35072 29.2366 1.66972 29.6336 2.07172C30.0316 2.47472 30.3466 2.95272 30.5616 3.47772C30.7756 4.00372 30.8856 4.56772 30.8846 5.13672C30.8836 5.70572 30.7706 6.26872 30.5536 6.79372C30.3366 7.31872 30.0196 7.79472 29.6196 8.19572L22.9766 14.9147L16.3306 8.19171C15.9316 7.79171 15.6146 7.31472 15.3976 6.78972C15.1806 6.26472 15.0686 5.70172 15.0676 5.13272C15.0656 4.56372 15.1756 4.00072 15.3906 3.47472C15.6056 2.94872 15.9206 2.47072 16.3186 2.06872C16.7166 1.66672 17.1886 1.34772 17.7086 1.13072C18.2286 0.913717 18.7856 0.802718 19.3476 0.803718C19.9106 0.804718 20.4666 0.918717 20.9856 1.13772C21.5046 1.35772 21.9756 1.67872 22.3716 2.08272Z" fill="#2352D5"/>
</svg>
