<svg width="24" height="24" viewBox="0 0 24 24" fill="none" xmlns="http://www.w3.org/2000/svg">
<path d="M1.99805 10.9998H21.998V19.9998C21.998 20.265 21.8927 20.5193 21.7052 20.7069C21.5176 20.8944 21.2633 20.9998 20.998 20.9998H2.99805C2.73283 20.9998 2.47848 20.8944 2.29094 20.7069C2.1034 20.5193 1.99805 20.265 1.99805 19.9998V10.9998ZM16.998 2.99976H20.998C21.2633 2.99976 21.5176 3.10511 21.7052 3.29265C21.8927 3.48019 21.998 3.73454 21.998 3.99976V8.99976H1.99805V3.99976C1.99805 3.73454 2.1034 3.48019 2.29094 3.29265C2.47848 3.10511 2.73283 2.99976 2.99805 2.99976H6.99805V0.999756H8.99805V2.99976H14.998V0.999756H16.998V2.99976Z" fill="white"/>
</svg>
