<svg width="25" height="24" viewBox="0 0 25 24" fill="none" xmlns="http://www.w3.org/2000/svg">
<path d="M1.68164 12C2.62164 6.88 7.10864 3 12.5006 3C17.8926 3 22.3786 6.88 23.3196 12C22.3796 17.12 17.8926 21 12.5006 21C7.10864 21 2.62264 17.12 1.68164 12ZM12.5006 17C13.8267 17 15.0985 16.4732 16.0362 15.5355C16.9739 14.5979 17.5006 13.3261 17.5006 12C17.5006 10.6739 16.9739 9.40215 16.0362 8.46447C15.0985 7.52678 13.8267 7 12.5006 7C11.1746 7 9.90279 7.52678 8.96511 8.46447C8.02742 9.40215 7.50064 10.6739 7.50064 12C7.50064 13.3261 8.02742 14.5979 8.96511 15.5355C9.90279 16.4732 11.1746 17 12.5006 17ZM12.5006 15C11.705 15 10.9419 14.6839 10.3793 14.1213C9.81671 13.5587 9.50064 12.7956 9.50064 12C9.50064 11.2044 9.81671 10.4413 10.3793 9.87868C10.9419 9.31607 11.705 9 12.5006 9C13.2963 9 14.0594 9.31607 14.622 9.87868C15.1846 10.4413 15.5006 11.2044 15.5006 12C15.5006 12.7956 15.1846 13.5587 14.622 14.1213C14.0594 14.6839 13.2963 15 12.5006 15Z" fill="#2352D5"/>
</svg>
