<svg width="15" height="15" viewBox="0 0 15 15" fill="none" xmlns="http://www.w3.org/2000/svg">
<g clip-path="url(#clip0_688_2907)">
<path d="M2.90217 14.4338C2.54751 14.6672 2.16717 14.7512 1.76117 14.6858C1.35517 14.6205 1.01684 14.4385 0.746172 14.1398C0.466172 13.8225 0.326172 13.4492 0.326172 13.0198V2.37984C0.326172 1.9505 0.466172 1.57717 0.746172 1.25984C1.01684 0.961171 1.35517 0.779171 1.76117 0.713838C2.16717 0.648504 2.54751 0.732504 2.90217 0.965837L11.2322 6.28584C11.5682 6.5005 11.7968 6.78984 11.9182 7.15384C12.0395 7.51784 12.0395 7.88184 11.9182 8.24584C11.7968 8.60984 11.5682 8.89917 11.2322 9.11384L2.90217 14.4338Z" fill="#1B4DD9"/>
</g>
<defs>
<clipPath id="clip0_688_2907">
<rect width="14" height="14" fill="white" transform="matrix(1 0 0 -1 0.326172 14.7)"/>
</clipPath>
</defs>
</svg>
