<svg width="15" height="15" viewBox="0 0 15 15" fill="none" xmlns="http://www.w3.org/2000/svg">
<g clip-path="url(#clip0_321_4200)">
<path d="M3.40217 14.634C3.04751 14.8674 2.66717 14.9514 2.26117 14.886C1.85517 14.8207 1.51684 14.6387 1.24617 14.34C0.966172 14.0227 0.826172 13.6494 0.826172 13.22V2.58003C0.826172 2.1507 0.966172 1.77737 1.24617 1.46003C1.51684 1.16137 1.85517 0.979366 2.26117 0.914033C2.66717 0.8487 3.04751 0.932699 3.40217 1.16603L11.7322 6.48603C12.0682 6.7007 12.2968 6.99003 12.4182 7.35403C12.5395 7.71803 12.5395 8.08203 12.4182 8.44603C12.2968 8.81003 12.0682 9.09937 11.7322 9.31403L3.40217 14.634Z" fill="white"/>
</g>
<defs>
<clipPath id="clip0_321_4200">
<rect width="14" height="14" fill="white" transform="matrix(1 0 0 -1 0.826172 14.9)"/>
</clipPath>
</defs>
</svg>
