<svg width="65" height="65" viewBox="0 0 65 65" fill="none" xmlns="http://www.w3.org/2000/svg">
<path d="M32.5007 29.8333C36.0369 29.8333 39.4283 31.238 41.9287 33.7385C44.4292 36.239 45.834 39.6304 45.834 43.1666V59.1666H19.1673V43.1666C19.1673 39.6304 20.5721 36.239 23.0726 33.7385C25.573 31.238 28.9644 29.8333 32.5007 29.8333ZM14.602 37.8493C14.1776 39.2807 13.9269 40.758 13.8553 42.2493L13.834 43.1666V59.1666H5.83398V47.1666C5.83346 44.8668 6.68206 42.6478 8.21701 40.9351C9.75196 39.2225 11.8652 38.1369 14.1513 37.8866L14.6047 37.8493H14.602ZM50.3993 37.8493C52.7724 37.9939 55.0009 39.0385 56.6302 40.7699C58.2596 42.5013 59.167 44.7891 59.1673 47.1666V59.1666H51.1673V43.1666C51.1673 41.3186 50.9007 39.5346 50.3993 37.8493ZM15.1673 21.8333C16.9354 21.8333 18.6311 22.5356 19.8814 23.7859C21.1316 25.0361 21.834 26.7318 21.834 28.4999C21.834 30.268 21.1316 31.9637 19.8814 33.214C18.6311 34.4642 16.9354 35.1666 15.1673 35.1666C13.3992 35.1666 11.7035 34.4642 10.4533 33.214C9.20303 31.9637 8.50065 30.268 8.50065 28.4999C8.50065 26.7318 9.20303 25.0361 10.4533 23.7859C11.7035 22.5356 13.3992 21.8333 15.1673 21.8333ZM49.834 21.8333C51.6021 21.8333 53.2978 22.5356 54.548 23.7859C55.7983 25.0361 56.5007 26.7318 56.5007 28.4999C56.5007 30.268 55.7983 31.9637 54.548 33.214C53.2978 34.4642 51.6021 35.1666 49.834 35.1666C48.0659 35.1666 46.3702 34.4642 45.1199 33.214C43.8697 31.9637 43.1673 30.268 43.1673 28.4999C43.1673 26.7318 43.8697 25.0361 45.1199 23.7859C46.3702 22.5356 48.0659 21.8333 49.834 21.8333ZM32.5007 5.83325C35.3296 5.83325 38.0427 6.95706 40.0431 8.95745C42.0435 10.9578 43.1673 13.6709 43.1673 16.4999C43.1673 19.3289 42.0435 22.042 40.0431 24.0424C38.0427 26.0428 35.3296 27.1666 32.5007 27.1666C29.6717 27.1666 26.9586 26.0428 24.9582 24.0424C22.9578 22.042 21.834 19.3289 21.834 16.4999C21.834 13.6709 22.9578 10.9578 24.9582 8.95745C26.9586 6.95706 29.6717 5.83325 32.5007 5.83325Z" fill="#2352D5"/>
</svg>
