<svg width="84" height="85" viewBox="0 0 84 85" fill="none" xmlns="http://www.w3.org/2000/svg">
<path d="M34.666 47.9986V69.1666H10.666C10.6657 66.1398 11.3096 63.1475 12.5547 60.3887C13.7999 57.6298 15.6179 55.1675 17.8879 53.1653C20.158 51.1631 22.8281 49.6669 25.7209 48.7761C28.6137 47.8853 31.6629 47.6203 34.666 47.9986ZM31.9993 45.1666C23.1593 45.1666 15.9993 38.0066 15.9993 29.1666C15.9993 20.3266 23.1593 13.1666 31.9993 13.1666C40.8393 13.1666 47.9994 20.3266 47.9994 29.1666C47.9994 38.0066 40.8393 45.1666 31.9993 45.1666ZM47.4473 63.604L56.874 54.1773L60.6474 57.948L47.4473 71.148L38.018 61.7186L41.7913 57.948L47.4447 63.604H47.4473Z" fill="#2352D5"/>
</svg>
