<svg width="73" height="74" viewBox="0 0 73 74" fill="none" xmlns="http://www.w3.org/2000/svg">
<g clip-path="url(#clip0_628_5120)">
<path d="M18.2507 6.58337H54.7506C55.5574 6.58337 56.331 6.90383 56.9014 7.47426C57.4719 8.04468 57.7923 8.81834 57.7923 9.62504V64.375C57.7923 65.1817 57.4719 65.9554 56.9014 66.5258C56.331 67.0962 55.5574 67.4167 54.7506 67.4167H18.2507C17.444 67.4167 16.6703 67.0962 16.0999 66.5258C15.5294 65.9554 15.209 65.1817 15.209 64.375V9.62504C15.209 8.81834 15.5294 8.04468 16.0999 7.47426C16.6703 6.90383 17.444 6.58337 18.2507 6.58337ZM36.5007 52.2084C35.694 52.2084 34.9203 52.5288 34.3499 53.0993C33.7794 53.6697 33.459 54.4433 33.459 55.25C33.459 56.0567 33.7794 56.8304 34.3499 57.4008C34.9203 57.9712 35.694 58.2917 36.5007 58.2917C37.3074 58.2917 38.081 57.9712 38.6514 57.4008C39.2219 56.8304 39.5423 56.0567 39.5423 55.25C39.5423 54.4433 39.2219 53.6697 38.6514 53.0993C38.081 52.5288 37.3074 52.2084 36.5007 52.2084Z" fill="#F2F2F2"/>
</g>
<defs>
<clipPath id="clip0_628_5120">
<rect width="73" height="73" fill="white" transform="translate(0 0.5)"/>
</clipPath>
</defs>
</svg>
