<svg width="68" height="69" viewBox="0 0 68 69" fill="none" xmlns="http://www.w3.org/2000/svg">
<g clip-path="url(#clip0_510_4253)">
<path d="M13.9649 8.63281L17.9712 12.6391C15.8633 14.7417 14.1917 17.2401 13.0524 19.9907C11.9132 22.7414 11.3287 25.6901 11.3327 28.6673C11.3327 34.929 13.8685 40.5956 17.9712 44.6955L13.9677 48.699C11.3326 46.0715 9.24272 42.9492 7.81805 39.5115C6.39338 36.0738 5.66204 32.3885 5.66604 28.6673C5.66129 24.9458 6.39201 21.2601 7.8162 17.8219C9.24039 14.3837 11.33 11.2609 13.9649 8.63281ZM54.0339 8.63281C56.6688 11.2609 58.7584 14.3837 60.1825 17.8219C61.6067 21.2601 62.3374 24.9458 62.3327 28.6673C62.3374 32.3888 61.6067 36.0745 60.1825 39.5127C58.7584 42.9509 56.6688 46.0737 54.0339 48.7018L50.0275 44.6955C52.1354 42.5929 53.8071 40.0945 54.9463 37.3439C56.0856 34.5932 56.67 31.6446 56.666 28.6673C56.666 22.4056 54.1302 16.739 50.0275 12.6391L54.031 8.63565L54.0339 8.63281ZM21.9775 16.6455L25.9867 20.6546C24.9326 21.7056 24.0966 22.9545 23.5267 24.3296C22.9568 25.7047 22.6643 27.1788 22.666 28.6673C22.666 31.7981 23.9354 34.6315 25.9867 36.68L21.9775 40.6891C20.3966 39.1121 19.143 37.2382 18.2886 35.1751C17.4343 33.1119 16.9962 30.9003 16.9994 28.6673C16.9994 23.9725 18.9034 19.7225 21.9775 16.6455ZM46.0212 16.6455C47.6021 18.2225 48.8558 20.0964 49.7101 22.1596C50.5644 24.2227 51.0026 26.4343 50.9994 28.6673C51.0026 30.9003 50.5644 33.1119 49.7101 35.1751C48.8558 37.2382 47.6021 39.1121 46.0212 40.6891L42.012 36.68C43.0661 35.629 43.9022 34.3801 44.472 33.005C45.0419 31.63 45.3344 30.1558 45.3327 28.6673C45.3344 27.1788 45.0419 25.7047 44.472 24.3296C43.9022 22.9545 43.0661 21.7056 42.012 20.6546L46.0212 16.6455ZM33.9994 34.334C32.4965 34.334 31.0551 33.737 29.9924 32.6742C28.9297 31.6115 28.3327 30.1702 28.3327 28.6673C28.3327 27.1644 28.9297 25.7231 29.9924 24.6604C31.0551 23.5977 32.4965 23.0006 33.9994 23.0006C35.5023 23.0006 36.9436 23.5977 38.0063 24.6604C39.069 25.7231 39.666 27.1644 39.666 28.6673C39.666 30.1702 39.069 31.6115 38.0063 32.6742C36.9436 33.737 35.5023 34.334 33.9994 34.334ZM33.9994 40.0006C35.6427 40.0006 37.0509 41.1708 37.354 42.7858L41.0827 62.6673H26.916L30.6447 42.7858C30.9479 41.1708 32.356 40.0006 33.9994 40.0006Z" fill="#2352D5"/>
</g>
<defs>
<clipPath id="clip0_510_4253">
<rect width="68" height="68" fill="white" transform="translate(0 0.333496)"/>
</clipPath>
</defs>
</svg>
