<svg width="481" height="272" viewBox="0 0 481 272" fill="none" xmlns="http://www.w3.org/2000/svg">
<rect x="0.0556641" y="0.980469" width="480.889" height="270.124" rx="15.0278" fill="white"/>
<path d="M226.208 133.901L230.292 129.817L241.521 141.047L248.667 133.901L254.792 140.026V121.447H226.208V133.901ZM224.167 117.363H256.833C257.375 117.363 257.894 117.578 258.277 117.961C258.66 118.344 258.875 118.863 258.875 119.405V152.072C258.875 152.613 258.66 153.132 258.277 153.515C257.894 153.898 257.375 154.113 256.833 154.113H224.167C223.625 154.113 223.106 153.898 222.723 153.515C222.34 153.132 222.125 152.613 222.125 152.072V119.405C222.125 118.863 222.34 118.344 222.723 117.961C223.106 117.578 223.625 117.363 224.167 117.363V117.363ZM247.646 131.655C246.834 131.655 246.055 131.332 245.48 130.758C244.906 130.184 244.583 129.405 244.583 128.592C244.583 127.78 244.906 127.001 245.48 126.427C246.055 125.853 246.834 125.53 247.646 125.53C248.458 125.53 249.237 125.853 249.811 126.427C250.386 127.001 250.708 127.78 250.708 128.592C250.708 129.405 250.386 130.184 249.811 130.758C249.237 131.332 248.458 131.655 247.646 131.655V131.655Z" fill="#2352D5"/>
</svg>
