<svg width="38" height="34" viewBox="0 0 38 34" fill="none" xmlns="http://www.w3.org/2000/svg">
<path d="M6.17915 0.0878906L8.74315 2.59489C7.39415 3.91189 6.32415 5.47489 5.59515 7.19689C4.86615 8.91889 4.49215 10.7649 4.49515 12.6289C4.49515 16.5479 6.11715 20.0959 8.74315 22.6619L6.18116 25.1679C4.49516 23.5229 3.15715 21.5689 2.24615 19.4169C1.33415 17.2649 0.866155 14.9579 0.869155 12.6289C0.866155 10.2989 1.33315 7.99189 2.24515 5.83989C3.15615 3.68689 4.49315 1.73289 6.17915 0.0878906ZM31.8192 0.0878906C33.5052 1.73289 34.8422 3.68689 35.7532 5.83989C36.6652 7.99189 37.1322 10.2989 37.1292 12.6289C37.1322 14.9579 36.6652 17.2649 35.7532 19.4179C34.8422 21.5699 33.5052 23.5249 31.8192 25.1699L29.2552 22.6619C30.6042 21.3459 31.6742 19.7819 32.4032 18.0599C33.1322 16.3379 33.5062 14.4919 33.5032 12.6289C33.5032 8.70889 31.8812 5.16189 29.2552 2.59489L31.8192 0.0878906ZM11.3062 5.10289L13.8722 7.61289C13.1972 8.27089 12.6622 9.05289 12.2982 9.91289C11.9332 10.7739 11.7462 11.6969 11.7472 12.6289C11.7472 14.5879 12.5592 16.3619 13.8722 17.6439L11.3062 20.1539C10.2952 19.1669 9.49315 17.9939 8.94615 16.7019C8.39915 15.4109 8.11915 14.0259 8.12115 12.6289C8.12115 9.68989 9.33916 7.02889 11.3062 5.10289ZM26.6922 5.10289C27.7032 6.08989 28.5051 7.26289 29.0522 8.55489C29.5992 9.84589 29.8792 11.2309 29.8772 12.6289C29.8792 14.0259 29.5992 15.4109 29.0522 16.7019C28.5051 17.9939 27.7032 19.1669 26.6922 20.1539L24.1262 17.6439C24.8012 16.9869 25.3362 16.2049 25.7002 15.3439C26.0652 14.4829 26.2522 13.5599 26.2512 12.6289C26.2522 11.6969 26.0652 10.7739 25.7002 9.91289C25.3362 9.05289 24.8012 8.27089 24.1262 7.61289L26.6922 5.10289ZM18.9992 16.1759C18.0372 16.1759 17.1152 15.8019 16.4352 15.1369C15.7552 14.4719 15.3732 13.5689 15.3732 12.6289C15.3732 11.6879 15.7552 10.7859 16.4352 10.1199C17.1152 9.45489 18.0372 9.08089 18.9992 9.08089C19.9612 9.08089 20.8832 9.45489 21.5632 10.1199C22.2432 10.7859 22.6252 11.6879 22.6252 12.6289C22.6252 13.5689 22.2432 14.4719 21.5632 15.1369C20.8832 15.8019 19.9612 16.1759 18.9992 16.1759ZM18.9992 19.7229C20.0512 19.7229 20.9522 20.4559 21.1462 21.4669L23.5322 33.9119H14.4662L16.8522 21.4669C17.0462 20.4559 17.9472 19.7229 18.9992 19.7229Z" fill="#2352D5"/>
</svg>
