<svg width="131" height="131" viewBox="0 0 131 131" fill="none" xmlns="http://www.w3.org/2000/svg">
<path d="M131 65.5C131 101.675 101.675 131 65.5 131C29.3253 131 0 101.675 0 65.5C0 29.3253 29.3253 0 65.5 0C101.675 0 131 29.3253 131 65.5Z" fill="#2352D5" fill-opacity="0.28"/>
<path d="M42 43H90C90.7072 43 91.3855 43.281 91.8856 43.781C92.3857 44.2811 92.6667 44.9594 92.6667 45.6667V88.3333C92.6667 89.0406 92.3857 89.7189 91.8856 90.219C91.3855 90.7191 90.7072 91 90 91H42C41.2928 91 40.6145 90.7191 40.1144 90.219C39.6143 89.7189 39.3333 89.0406 39.3333 88.3333V45.6667C39.3333 44.9594 39.6143 44.2811 40.1144 43.781C40.6145 43.281 41.2928 43 42 43ZM66.16 66.1547L49.0613 51.6347L45.608 55.6987L66.1947 73.1787L86.4107 55.6853L82.9227 51.6507L66.1627 66.1547H66.16Z" fill="#2352D5"/>
</svg>
