<svg width="22" height="32" viewBox="0 0 22 32" fill="none" xmlns="http://www.w3.org/2000/svg">
<path d="M1.95135 0.918945H20.0484C20.4484 0.918945 20.8324 1.07794 21.1154 1.36094C21.3974 1.64394 21.5564 2.02694 21.5564 2.42694V29.5729C21.5564 29.9729 21.3974 30.3569 21.1154 30.6389C20.8324 30.9219 20.4484 31.0809 20.0484 31.0809H1.95135C1.55136 31.0809 1.16836 30.9219 0.885361 30.6389C0.602361 30.3569 0.443359 29.9729 0.443359 29.5729V2.42694C0.443359 2.02694 0.602361 1.64394 0.885361 1.36094C1.16836 1.07794 1.55136 0.918945 1.95135 0.918945ZM11.0004 23.5409C10.6004 23.5409 10.2164 23.6989 9.93336 23.9819C9.65036 24.2649 9.49236 24.6489 9.49236 25.0489C9.49236 25.4489 9.65036 25.8319 9.93336 26.1149C10.2164 26.3979 10.6004 26.5569 11.0004 26.5569C11.4004 26.5569 11.7834 26.3979 12.0664 26.1149C12.3494 25.8319 12.5084 25.4489 12.5084 25.0489C12.5084 24.6489 12.3494 24.2649 12.0664 23.9819C11.7834 23.6989 11.4004 23.5409 11.0004 23.5409Z" fill="#2352D5"/>
</svg>
