<svg width="45" height="44" viewBox="0 0 45 44" fill="none" xmlns="http://www.w3.org/2000/svg">
<path d="M34.9725 15.5707C36.7912 16.4564 38.851 16.7186 40.8337 16.3168V36.6668C40.8337 37.1531 40.6405 37.6194 40.2967 37.9632C39.9529 38.307 39.4866 38.5002 39.0003 38.5002H6.00033C5.5141 38.5002 5.04778 38.307 4.70396 37.9632C4.36015 37.6194 4.16699 37.1531 4.16699 36.6668V7.3335C4.16699 6.84727 4.36015 6.38095 4.70396 6.03713C5.04778 5.69332 5.5141 5.50016 6.00033 5.50016H30.017C29.896 6.09233 29.8337 6.7065 29.8337 7.3335C29.8306 9.51159 30.6064 11.619 32.0208 13.2753L22.6122 21.419L10.8532 11.4365L8.48083 14.2305L22.6342 26.248L34.9725 15.5707ZM39.0003 12.8335C38.2781 12.8335 37.5629 12.6912 36.8956 12.4148C36.2283 12.1384 35.622 11.7333 35.1112 11.2226C34.6005 10.7119 34.1954 10.1055 33.919 9.43826C33.6426 8.77096 33.5003 8.05577 33.5003 7.3335C33.5003 6.61123 33.6426 5.89603 33.919 5.22874C34.1954 4.56145 34.6005 3.95513 35.1112 3.44441C35.622 2.93369 36.2283 2.52856 36.8956 2.25216C37.5629 1.97576 38.2781 1.8335 39.0003 1.8335C40.459 1.8335 41.858 2.41296 42.8894 3.44441C43.9209 4.47586 44.5003 5.87481 44.5003 7.3335C44.5003 8.79219 43.9209 10.1911 42.8894 11.2226C41.858 12.254 40.459 12.8335 39.0003 12.8335Z" fill="#2352D5"/>
</svg>
