<svg width="4" height="19" viewBox="0 0 4 19" fill="none" xmlns="http://www.w3.org/2000/svg">
<path d="M2 0.151367C0.9 0.151367 0 1.05137 0 2.15137C0 3.25137 0.9 4.15137 2 4.15137C3.1 4.15137 4 3.25137 4 2.15137C4 1.05137 3.1 0.151367 2 0.151367ZM2 14.1514C0.9 14.1514 0 15.0514 0 16.1514C0 17.2514 0.9 18.1514 2 18.1514C3.1 18.1514 4 17.2514 4 16.1514C4 15.0514 3.1 14.1514 2 14.1514ZM2 7.15137C0.9 7.15137 0 8.05137 0 9.15137C0 10.2514 0.9 11.1514 2 11.1514C3.1 11.1514 4 10.2514 4 9.15137C4 8.05137 3.1 7.15137 2 7.15137Z" fill="#09121F"/>
</svg>
