<svg width="15" height="15" viewBox="0 0 15 15" fill="none" xmlns="http://www.w3.org/2000/svg">
<g clip-path="url(#clip0_668_1362)">
<path d="M2.90217 14.6338C2.54751 14.8671 2.16717 14.9511 1.76117 14.8858C1.35517 14.8205 1.01684 14.6385 0.746172 14.3398C0.466172 14.0225 0.326172 13.6491 0.326172 13.2198V2.57979C0.326172 2.15046 0.466172 1.77712 0.746172 1.45979C1.01684 1.16112 1.35517 0.979122 1.76117 0.913789C2.16717 0.848455 2.54751 0.932455 2.90217 1.16579L11.2322 6.48579C11.5682 6.70046 11.7968 6.98979 11.9182 7.35379C12.0395 7.71779 12.0395 8.08179 11.9182 8.44579C11.7968 8.80979 11.5682 9.09912 11.2322 9.31379L2.90217 14.6338Z" fill="#1B4DD9"/>
</g>
<defs>
<clipPath id="clip0_668_1362">
<rect width="14" height="14" fill="white" transform="matrix(1 0 0 -1 0.326172 14.8999)"/>
</clipPath>
</defs>
</svg>
