<svg width="31" height="32" viewBox="0 0 31 32" fill="none" xmlns="http://www.w3.org/2000/svg">
<circle cx="15.1693" cy="16.013" r="15.0345" fill="#2352D5"/>
<path d="M13.9401 14.1164L16.9782 15.8887C17 15.9015 17.018 15.9197 17.0306 15.9416C17.0431 15.9635 17.0497 15.9882 17.0497 16.0135C17.0497 16.0387 17.0431 16.0635 17.0306 16.0854C17.018 16.1073 17 16.1255 16.9782 16.1382L13.9401 17.9106C13.9181 17.9234 13.8931 17.9302 13.8676 17.9303C13.8421 17.9303 13.817 17.9237 13.795 17.9109C13.7729 17.8982 13.7546 17.8798 13.7419 17.8577C13.7292 17.8356 13.7225 17.8106 13.7227 17.7851V14.2413C13.7227 14.2158 13.7294 14.1909 13.7421 14.1688C13.7548 14.1468 13.7732 14.1286 13.7952 14.1159C13.8173 14.1032 13.8423 14.0966 13.8677 14.0967C13.8931 14.0968 13.9181 14.1036 13.9401 14.1164Z" fill="white"/>
</svg>
