<svg width="10" height="10" viewBox="0 0 10 10" fill="none" xmlns="http://www.w3.org/2000/svg">
<g clip-path="url(#clip0_640_27218)">
<path d="M1.32242 3.71448C1.62953 3.10295 2.10065 2.58887 2.68314 2.22971C3.26562 1.87055 3.93651 1.68045 4.62083 1.68066C5.61559 1.68066 6.45126 2.04609 7.0902 2.64221L6.03195 3.70082C5.64918 3.33503 5.16269 3.14863 4.62083 3.14863C3.65929 3.14863 2.84539 3.79827 2.55563 4.67049C2.48181 4.89196 2.43973 5.12819 2.43973 5.3718C2.43973 5.61542 2.48181 5.85165 2.55563 6.07312C2.84576 6.9457 3.65929 7.59498 4.62083 7.59498C5.11728 7.59498 5.53992 7.46394 5.87065 7.24247C6.06238 7.11624 6.22652 6.95243 6.35315 6.76096C6.47978 6.56949 6.56628 6.35433 6.6074 6.12849H4.62083V4.70075H8.09714C8.1407 4.94215 8.16432 5.19389 8.16432 5.45559C8.16432 6.57991 7.76199 7.52632 7.06362 8.16858C6.45311 8.73258 5.61743 9.06294 4.62083 9.06294C4.13604 9.06314 3.65598 8.96779 3.20806 8.78237C2.76014 8.59694 2.35316 8.32506 2.01036 7.98227C1.66757 7.63947 1.39569 7.23249 1.21026 6.78457C1.02484 6.33665 0.929494 5.85659 0.929688 5.3718C0.929688 4.77605 1.07217 4.21279 1.32242 3.71448Z" fill="#5F44FB"/>
</g>
<defs>
<clipPath id="clip0_640_27218">
<rect width="8.85873" height="8.85873" fill="white" transform="translate(0.191406 0.942383)"/>
</clipPath>
</defs>
</svg>
