<svg width="62" height="61" viewBox="0 0 62 61" fill="none" xmlns="http://www.w3.org/2000/svg">
<g clip-path="url(#clip0_2_614)">
<path d="M36.084 15.2497H41.1673V20.333H53.8756C54.5497 20.333 55.1962 20.6008 55.6729 21.0774C56.1495 21.5541 56.4173 22.2006 56.4173 22.8747V41.9372L41.1673 33.0413L41.2588 53.5323L46.9089 48.0677L51.4382 55.9163H23.3757C22.7016 55.9163 22.0551 55.6486 21.5784 55.1719C21.1018 54.6952 20.834 54.0488 20.834 53.3747V40.6663H15.7507V35.583H20.834V22.8747C20.834 22.2006 21.1018 21.5541 21.5784 21.0774C22.0551 20.6008 22.7016 20.333 23.3757 20.333H36.084V15.2497ZM56.4173 44.0671V53.3747C56.4176 53.6395 56.3764 53.9028 56.2953 54.155L51.3136 45.5285L56.4173 44.0671ZM10.6673 35.583V40.6663H5.58398V35.583H10.6673ZM10.6673 25.4163V30.4997H5.58398V25.4163H10.6673ZM10.6673 15.2497V20.333H5.58398V15.2497H10.6673ZM10.6673 5.08301V10.1663H5.58398V5.08301H10.6673ZM20.834 5.08301V10.1663H15.7507V5.08301H20.834ZM31.0006 5.08301V10.1663H25.9173V5.08301H31.0006ZM41.1673 5.08301V10.1663H36.084V5.08301H41.1673Z" fill="#222222"/>
</g>
<defs>
<clipPath id="clip0_2_614">
<rect width="61" height="61" fill="white" transform="translate(0.5)"/>
</clipPath>
</defs>
</svg>
