<svg width="25" height="25" viewBox="0 0 25 25" fill="none" xmlns="http://www.w3.org/2000/svg">
<g clip-path="url(#clip0_11_3467)">
<path d="M17.25 8.58984H7.25V10.5898H11.25V17.5898H13.25V10.5898H17.25V8.58984ZM4.25 3.58984H20.25C20.5152 3.58984 20.7696 3.6952 20.9571 3.88274C21.1446 4.07027 21.25 4.32463 21.25 4.58984V20.5898C21.25 20.8551 21.1446 21.1094 20.9571 21.297C20.7696 21.4845 20.5152 21.5898 20.25 21.5898H4.25C3.98478 21.5898 3.73043 21.4845 3.54289 21.297C3.35536 21.1094 3.25 20.8551 3.25 20.5898V4.58984C3.25 4.32463 3.35536 4.07027 3.54289 3.88274C3.73043 3.6952 3.98478 3.58984 4.25 3.58984Z" fill="#2352D5"/>
</g>
<defs>
<clipPath id="clip0_11_3467">
<rect width="24" height="24" fill="white" transform="translate(0.25 0.589844)"/>
</clipPath>
</defs>
</svg>
