<svg width="10" height="10" viewBox="0 0 10 10" fill="none" xmlns="http://www.w3.org/2000/svg">
<g clip-path="url(#clip0_640_27220)">
<path d="M5.05637 1.68066C6.05926 1.68066 6.18439 1.68436 6.57786 1.70281C6.97097 1.72127 7.23857 1.78291 7.47407 1.87445C7.71768 1.9682 7.92291 2.09518 8.12814 2.30004C8.31583 2.48456 8.46106 2.70776 8.55373 2.95411C8.6449 3.18923 8.70691 3.45721 8.72537 3.85032C8.74271 4.24379 8.74751 4.36892 8.74751 5.3718C8.74751 6.37469 8.74382 6.49981 8.72537 6.89329C8.70691 7.2864 8.6449 7.554 8.55373 7.7895C8.46133 8.03598 8.31606 8.25924 8.12814 8.44357C7.94357 8.6312 7.72038 8.77642 7.47407 8.86916C7.23894 8.96033 6.97097 9.02234 6.57786 9.0408C6.18439 9.05814 6.05926 9.06294 5.05637 9.06294C4.05349 9.06294 3.92836 9.05925 3.53489 9.0408C3.14178 9.02234 2.87417 8.96033 2.63868 8.86916C2.39223 8.77668 2.16899 8.63143 1.98461 8.44357C1.79688 8.25908 1.65164 8.03587 1.55902 7.7895C1.46748 7.55437 1.40584 7.2864 1.38738 6.89329C1.37003 6.49981 1.36523 6.37469 1.36523 5.3718C1.36523 4.36892 1.36893 4.24379 1.38738 3.85032C1.40584 3.45684 1.46748 3.1896 1.55902 2.95411C1.65138 2.70761 1.79666 2.48434 1.98461 2.30004C2.16904 2.11224 2.39227 1.967 2.63868 1.87445C2.87417 1.78291 3.14141 1.72127 3.53489 1.70281C3.92836 1.68546 4.05349 1.68066 5.05637 1.68066ZM5.05637 3.52623C4.5669 3.52623 4.09747 3.72068 3.75136 4.06679C3.40525 4.4129 3.2108 4.88233 3.2108 5.3718C3.2108 5.86128 3.40525 6.33071 3.75136 6.67682C4.09747 7.02293 4.5669 7.21737 5.05637 7.21737C5.54585 7.21737 6.01528 7.02293 6.36139 6.67682C6.7075 6.33071 6.90194 5.86128 6.90194 5.3718C6.90194 4.88233 6.7075 4.4129 6.36139 4.06679C6.01528 3.72068 5.54585 3.52623 5.05637 3.52623ZM7.45561 3.43396C7.45561 3.31159 7.407 3.19423 7.32048 3.1077C7.23395 3.02117 7.11659 2.97256 6.99422 2.97256C6.87185 2.97256 6.7545 3.02117 6.66797 3.1077C6.58144 3.19423 6.53283 3.31159 6.53283 3.43396C6.53283 3.55632 6.58144 3.67368 6.66797 3.76021C6.7545 3.84674 6.87185 3.89535 6.99422 3.89535C7.11659 3.89535 7.23395 3.84674 7.32048 3.76021C7.407 3.67368 7.45561 3.55632 7.45561 3.43396ZM5.05637 4.26446C5.35006 4.26446 5.63172 4.38113 5.83938 4.58879C6.04705 4.79646 6.16371 5.07812 6.16371 5.3718C6.16371 5.66549 6.04705 5.94714 5.83938 6.15481C5.63172 6.36248 5.35006 6.47914 5.05637 6.47914C4.76269 6.47914 4.48103 6.36248 4.27336 6.15481C4.0657 5.94714 3.94903 5.66549 3.94903 5.3718C3.94903 5.07812 4.0657 4.79646 4.27336 4.58879C4.48103 4.38113 4.76269 4.26446 5.05637 4.26446Z" fill="#5F44FB"/>
</g>
<defs>
<clipPath id="clip0_640_27220">
<rect width="8.85873" height="8.85873" fill="white" transform="translate(0.626953 0.942383)"/>
</clipPath>
</defs>
</svg>
