<svg width="25" height="24" viewBox="0 0 25 24" fill="none" xmlns="http://www.w3.org/2000/svg">
<g clip-path="url(#clip0_54_3304)">
<path d="M9.82805 11.4997H11.998C13.1915 11.4997 14.3361 11.9738 15.18 12.8177C16.0239 13.6616 16.498 14.8062 16.498 15.9997H9.49705L9.49805 16.9997H17.498V15.9997C17.4949 14.9357 17.1875 13.8947 16.612 12.9997H19.498C20.4433 12.9995 21.3693 13.2671 22.1686 13.7718C22.9679 14.2764 23.6078 14.9972 24.014 15.8507C21.649 18.9717 17.82 20.9997 13.498 20.9997C10.737 20.9997 8.39805 20.4097 6.49805 19.3747V10.0707C7.71466 10.245 8.86352 10.738 9.82805 11.4997ZM4.49805 8.99971C4.74298 8.99974 4.97938 9.08967 5.16242 9.25243C5.34545 9.41519 5.46239 9.63946 5.49105 9.88271L5.49805 9.99971V18.9997C5.49805 19.2649 5.39269 19.5193 5.20515 19.7068C5.01762 19.8944 4.76326 19.9997 4.49805 19.9997H2.49805C2.23283 19.9997 1.97848 19.8944 1.79094 19.7068C1.6034 19.5193 1.49805 19.2649 1.49805 18.9997V9.99971C1.49805 9.7345 1.6034 9.48014 1.79094 9.2926C1.97848 9.10507 2.23283 8.99971 2.49805 8.99971H4.49805ZM14.144 3.57471L14.498 3.92971L14.852 3.57571C15.0839 3.34193 15.3596 3.15624 15.6633 3.02929C15.9671 2.90235 16.2929 2.83665 16.6222 2.83598C16.9514 2.83531 17.2775 2.89967 17.5818 3.02537C17.8861 3.15106 18.1625 3.33563 18.3953 3.56846C18.6281 3.80129 18.8126 4.0778 18.9382 4.38212C19.0638 4.68644 19.128 5.01258 19.1273 5.3418C19.1265 5.67102 19.0607 5.99686 18.9337 6.30059C18.8067 6.60432 18.6209 6.87997 18.387 7.11171L14.498 10.9997L10.608 7.10971C10.3743 6.8779 10.1886 6.6022 10.0616 6.29843C9.93468 5.99466 9.86899 5.66882 9.86832 5.33959C9.86764 5.01037 9.932 4.68425 10.0577 4.37997C10.1834 4.07568 10.368 3.79922 10.6008 3.56646C10.8336 3.33369 11.1101 3.14921 11.4145 3.02359C11.7188 2.89798 12.0449 2.83371 12.3741 2.83448C12.7034 2.83525 13.0292 2.90103 13.3329 3.02806C13.6367 3.15509 13.9123 3.34086 14.144 3.57471Z" fill="white"/>
</g>
<defs>
<clipPath id="clip0_54_3304">
<rect width="24" height="24" fill="white" transform="translate(0.5)"/>
</clipPath>
</defs>
</svg>
