<svg width="88" height="88" viewBox="0 0 88 88" fill="none" xmlns="http://www.w3.org/2000/svg">
<path d="M22.0007 7.33301H66.0006C66.9731 7.33301 67.9057 7.71932 68.5934 8.40695C69.281 9.09458 69.6673 10.0272 69.6673 10.9997V76.9997C69.6673 77.9721 69.281 78.9048 68.5934 79.5924C67.9057 80.28 66.9731 80.6663 66.0006 80.6663H22.0007C21.0282 80.6663 20.0956 80.28 19.4079 79.5924C18.7203 78.9048 18.334 77.9721 18.334 76.9997V10.9997C18.334 10.0272 18.7203 9.09458 19.4079 8.40695C20.0956 7.71932 21.0282 7.33301 22.0007 7.33301ZM44.0006 62.333C43.0282 62.333 42.0956 62.7193 41.4079 63.4069C40.7203 64.0946 40.334 65.0272 40.334 65.9997C40.334 66.9721 40.7203 67.9048 41.4079 68.5924C42.0956 69.28 43.0282 69.6663 44.0006 69.6663C44.9731 69.6663 45.9057 69.28 46.5934 68.5924C47.281 67.9048 47.6673 66.9721 47.6673 65.9997C47.6673 65.0272 47.281 64.0946 46.5934 63.4069C45.9057 62.7193 44.9731 62.333 44.0006 62.333Z" fill="#2352D5"/>
</svg>
