<svg width="25" height="24" viewBox="0 0 25 24" fill="none" xmlns="http://www.w3.org/2000/svg">
<g clip-path="url(#clip0_54_3274)">
<path d="M17.3 19L14.5 22.5L11.7 19H6.5C6.23478 19 5.98043 18.8946 5.79289 18.7071C5.60536 18.5196 5.5 18.2652 5.5 18V7.103C5.5 6.83778 5.60536 6.58343 5.79289 6.39589C5.98043 6.20836 6.23478 6.103 6.5 6.103H22.5C22.7652 6.103 23.0196 6.20836 23.2071 6.39589C23.3946 6.58343 23.5 6.83778 23.5 7.103V18C23.5 18.2652 23.3946 18.5196 23.2071 18.7071C23.0196 18.8946 22.7652 19 22.5 19H17.3ZM2.5 2H19.5V4H3.5V15H1.5V3C1.5 2.73478 1.60536 2.48043 1.79289 2.29289C1.98043 2.10536 2.23478 2 2.5 2Z" fill="white"/>
</g>
<defs>
<clipPath id="clip0_54_3274">
<rect width="24" height="24" fill="white" transform="translate(0.5)"/>
</clipPath>
</defs>
</svg>
