<svg width="10" height="10" viewBox="0 0 10 10" fill="none" xmlns="http://www.w3.org/2000/svg">
<g clip-path="url(#clip0_640_27203)">
<path d="M1.64076 3.27244C1.93715 2.68224 2.39184 2.1861 2.954 1.83946C3.51617 1.49283 4.16366 1.30936 4.8241 1.30957C5.78416 1.30957 6.59069 1.66225 7.20734 2.23757L6.186 3.25926C5.81658 2.90623 5.34706 2.72633 4.8241 2.72633C3.8961 2.72633 3.1106 3.35331 2.83095 4.1951C2.7597 4.40884 2.71909 4.63684 2.71909 4.87195C2.71909 5.10707 2.7597 5.33506 2.83095 5.54881C3.11095 6.39095 3.8961 7.01758 4.8241 7.01758C5.30324 7.01758 5.71113 6.89111 6.03032 6.67737C6.21537 6.55554 6.37379 6.39745 6.496 6.21265C6.61821 6.02786 6.70169 5.82021 6.74138 5.60224H4.8241V4.22431H8.17915C8.22119 4.45729 8.24399 4.70025 8.24399 4.95282C8.24399 6.03792 7.85569 6.95132 7.18169 7.57117C6.59247 8.1155 5.78595 8.43434 4.8241 8.43434C4.35623 8.43452 3.89291 8.34251 3.46062 8.16355C3.02832 7.98459 2.63553 7.72219 2.3047 7.39136C1.97386 7.06052 1.71147 6.66773 1.53251 6.23544C1.35355 5.80315 1.26153 5.33982 1.26172 4.87195C1.26172 4.29698 1.39923 3.75337 1.64076 3.27244Z" fill="#5F44FB"/>
</g>
<defs>
<clipPath id="clip0_640_27203">
<rect width="8.54972" height="8.54972" fill="white" transform="translate(0.548828 0.59668)"/>
</clipPath>
</defs>
</svg>
