<svg width="25" height="24" viewBox="0 0 25 24" fill="none" xmlns="http://www.w3.org/2000/svg">
<g clip-path="url(#clip0_54_3308)">
<path d="M20.5838 10.4998L21.7858 11.2208C21.86 11.2652 21.9214 11.3281 21.964 11.4033C22.0066 11.4784 22.029 11.5634 22.029 11.6498C22.029 11.7363 22.0066 11.8212 21.964 11.8964C21.9214 11.9716 21.86 12.0344 21.7858 12.0788L12.5008 17.6498L3.21583 12.0788C3.14168 12.0344 3.0803 11.9716 3.03768 11.8964C2.99506 11.8212 2.97266 11.7363 2.97266 11.6498C2.97266 11.5634 2.99506 11.4784 3.03768 11.4033C3.0803 11.3281 3.14168 11.2652 3.21583 11.2208L4.41783 10.4998L12.5008 15.3498L20.5838 10.4998ZM20.5838 15.1998L21.7858 15.9208C21.86 15.9652 21.9214 16.0281 21.964 16.1033C22.0066 16.1784 22.029 16.2634 22.029 16.3498C22.029 16.4363 22.0066 16.5212 21.964 16.5964C21.9214 16.6716 21.86 16.7344 21.7858 16.7788L13.0158 22.0408C12.8603 22.1343 12.6823 22.1836 12.5008 22.1836C12.3194 22.1836 12.1414 22.1343 11.9858 22.0408L3.21583 16.7788C3.14168 16.7344 3.0803 16.6716 3.03768 16.5964C2.99506 16.5212 2.97266 16.4363 2.97266 16.3498C2.97266 16.2634 2.99506 16.1784 3.03768 16.1033C3.0803 16.0281 3.14168 15.9652 3.21583 15.9208L4.41783 15.1998L12.5008 20.0498L20.5838 15.1998ZM13.0148 1.30883L21.7858 6.57083C21.86 6.61522 21.9214 6.67807 21.964 6.75326C22.0066 6.82845 22.029 6.9134 22.029 6.99983C22.029 7.08625 22.0066 7.1712 21.964 7.24639C21.9214 7.32158 21.86 7.38443 21.7858 7.42883L12.5008 12.9998L3.21583 7.42883C3.14168 7.38443 3.0803 7.32158 3.03768 7.24639C2.99506 7.1712 2.97266 7.08625 2.97266 6.99983C2.97266 6.9134 2.99506 6.82845 3.03768 6.75326C3.0803 6.67807 3.14168 6.61522 3.21583 6.57083L11.9858 1.30883C12.1414 1.21538 12.3194 1.16602 12.5008 1.16602C12.6823 1.16602 12.8603 1.21538 13.0158 1.30883H13.0148Z" fill="white"/>
</g>
<defs>
<clipPath id="clip0_54_3308">
<rect width="24" height="24" fill="white" transform="translate(0.5)"/>
</clipPath>
</defs>
</svg>
