<svg width="10" height="10" viewBox="0 0 10 10" fill="none" xmlns="http://www.w3.org/2000/svg">
<g clip-path="url(#clip0_640_27217)">
<path d="M6.15978 8.69385V6.12261H7.02092L7.14974 5.12305H6.15978V4.48522C6.15978 4.19583 6.24025 3.99836 6.65513 3.99836H7.18444V3.10436C6.9282 3.07718 6.67067 3.06399 6.41299 3.06487C5.65004 3.06487 5.12774 3.53069 5.12774 4.3863V5.12305H4.26475V6.12261H5.12774V8.69385H1.95115C1.85325 8.69385 1.75936 8.65497 1.69014 8.58574C1.62092 8.51652 1.58203 8.42264 1.58203 8.32474V2.41892C1.58203 2.32102 1.62092 2.22714 1.69014 2.15792C1.75936 2.08869 1.85325 2.0498 1.95115 2.0498H7.85697C7.95486 2.0498 8.04875 2.08869 8.11797 2.15792C8.18719 2.22714 8.22608 2.32102 8.22608 2.41892V8.32474C8.22608 8.42264 8.18719 8.51652 8.11797 8.58574C8.04875 8.65497 7.95486 8.69385 7.85697 8.69385H6.15978Z" fill="#5F44FB"/>
</g>
<defs>
<clipPath id="clip0_640_27217">
<rect width="8.85873" height="8.85873" fill="white" transform="translate(0.474609 0.942383)"/>
</clipPath>
</defs>
</svg>
