<svg width="10" height="10" viewBox="0 0 10 10" fill="none" xmlns="http://www.w3.org/2000/svg">
<g clip-path="url(#clip0_640_27219)">
<path d="M9.09005 3.02992C8.80826 3.15457 8.50942 3.23643 8.20344 3.2728C8.52596 3.07991 8.76734 2.77635 8.88261 2.41867C8.57994 2.5988 8.24811 2.72504 7.90225 2.79332C7.66993 2.54475 7.362 2.3799 7.02632 2.32439C6.69065 2.26889 6.34604 2.32584 6.04607 2.48639C5.7461 2.64694 5.50758 2.90209 5.36758 3.21219C5.22759 3.52229 5.19396 3.86995 5.27194 4.20112C4.65814 4.17036 4.05768 4.01085 3.50953 3.73296C2.96138 3.45507 2.4778 3.06501 2.09018 2.58809C1.95298 2.82376 1.88087 3.09165 1.88126 3.36434C1.88126 3.89956 2.15367 4.37239 2.56781 4.64923C2.32272 4.64151 2.08303 4.57532 1.86871 4.45618V4.47537C1.86878 4.83183 1.99213 5.17729 2.21784 5.45318C2.44354 5.72907 2.75771 5.91842 3.10709 5.98911C2.87957 6.05077 2.64101 6.05985 2.40946 6.01569C2.50797 6.32251 2.69996 6.59084 2.95855 6.78311C3.21715 6.97539 3.5294 7.08198 3.85159 7.08796C3.53138 7.33945 3.16473 7.52536 2.77263 7.63505C2.38052 7.74475 1.97063 7.77608 1.56641 7.72727C2.27204 8.18107 3.09347 8.42198 3.93243 8.4212C6.77202 8.4212 8.32488 6.06884 8.32488 4.02875C8.32488 3.96231 8.32304 3.89513 8.32008 3.82942C8.62234 3.61097 8.8832 3.34036 9.09042 3.03029L9.09005 3.02992Z" fill="#5F44FB"/>
</g>
<defs>
<clipPath id="clip0_640_27219">
<rect width="8.85873" height="8.85873" fill="white" transform="translate(0.910156 0.942383)"/>
</clipPath>
</defs>
</svg>
