<svg width="10" height="10" viewBox="0 0 10 10" fill="none" xmlns="http://www.w3.org/2000/svg">
<g clip-path="url(#clip0_640_27204)">
<path d="M8.54441 2.61201C8.27244 2.73231 7.98403 2.81132 7.68872 2.84642C7.99999 2.66026 8.23295 2.36728 8.3442 2.02208C8.05209 2.19593 7.73183 2.31776 7.39803 2.38367C7.17382 2.14377 6.87663 1.98467 6.55266 1.93109C6.2287 1.87752 5.89611 1.93249 5.60661 2.08744C5.3171 2.24239 5.0869 2.48864 4.95179 2.78792C4.81667 3.0872 4.78422 3.42273 4.85948 3.74236C4.26709 3.71267 3.68757 3.55873 3.15854 3.29053C2.62951 3.02233 2.1628 2.64587 1.78871 2.1856C1.65629 2.41304 1.5867 2.67159 1.58707 2.93477C1.58707 3.45131 1.84998 3.90765 2.24968 4.17483C2.01314 4.16738 1.78181 4.10351 1.57496 3.98852V4.00704C1.57503 4.35106 1.69408 4.68447 1.91191 4.95074C2.12974 5.21701 2.43296 5.39975 2.77014 5.46798C2.55056 5.52748 2.32032 5.53625 2.09685 5.49363C2.19192 5.78974 2.37721 6.04872 2.62679 6.23428C2.87636 6.41985 3.17772 6.52272 3.48867 6.5285C3.17963 6.77121 2.82578 6.95063 2.44735 7.0565C2.06892 7.16237 1.67333 7.19262 1.2832 7.1455C1.96422 7.58347 2.757 7.81599 3.56669 7.81523C6.30723 7.81523 7.80593 5.54492 7.80593 3.57599C7.80593 3.51187 7.80414 3.44704 7.8013 3.38363C8.09301 3.17279 8.34477 2.91162 8.54476 2.61237L8.54441 2.61201Z" fill="#5F44FB"/>
</g>
<defs>
<clipPath id="clip0_640_27204">
<rect width="8.54972" height="8.54972" fill="white" transform="translate(0.648438 0.59668)"/>
</clipPath>
</defs>
</svg>
