<svg width="130" height="130" viewBox="0 0 130 130" fill="none" xmlns="http://www.w3.org/2000/svg">
<g clip-path="url(#clip0_48_2529)">
<path d="M86.6673 86.6663C95.6427 86.6663 102.917 93.9409 102.917 102.916C102.917 111.892 95.6427 119.166 86.6673 119.166C77.6919 119.166 70.4173 111.892 70.4173 102.916C70.4173 93.9409 77.6919 86.6663 86.6673 86.6663ZM32.5007 64.9997C44.4715 64.9997 54.1673 74.6955 54.1673 86.6663C54.1673 98.6372 44.4715 108.333 32.5007 108.333C20.5298 108.333 10.834 98.6372 10.834 86.6663C10.834 74.6955 20.5298 64.9997 32.5007 64.9997ZM78.5423 10.833C94.9981 10.833 108.334 24.1688 108.334 40.6247C108.334 57.0805 94.9981 70.4163 78.5423 70.4163C62.0865 70.4163 48.7506 57.0805 48.7506 40.6247C48.7506 24.1688 62.0865 10.833 78.5423 10.833Z" fill="#2352D5"/>
</g>
<defs>
<clipPath id="clip0_48_2529">
<rect width="130" height="130" fill="white"/>
</clipPath>
</defs>
</svg>
