<svg width="16" height="17" viewBox="0 0 16 17" fill="none" xmlns="http://www.w3.org/2000/svg">
<g clip-path="url(#clip0_713_8426)">
<path d="M14 13.8335C14 14.0103 13.9298 14.1799 13.8047 14.3049C13.6797 14.4299 13.5101 14.5002 13.3333 14.5002H2.66667C2.48986 14.5002 2.32029 14.4299 2.19526 14.3049C2.07024 14.1799 2 14.0103 2 13.8335V6.82685C1.99993 6.72526 2.02308 6.62499 2.06768 6.53371C2.11228 6.44244 2.17715 6.36256 2.25733 6.30018L7.59067 2.15218C7.7077 2.06114 7.85173 2.01172 8 2.01172C8.14827 2.01172 8.29231 2.06114 8.40933 2.15218L13.7427 6.30018C13.8229 6.36256 13.8877 6.44244 13.9323 6.53371C13.9769 6.62499 14.0001 6.72526 14 6.82685V13.8335V13.8335ZM4.66667 10.5002V11.8335H11.3333V10.5002H4.66667Z" fill="white"/>
</g>
<defs>
<clipPath id="clip0_713_8426">
<rect width="16" height="16" fill="white" transform="translate(0 0.5)"/>
</clipPath>
</defs>
</svg>
