<svg width="10" height="10" viewBox="0 0 10 10" fill="none" xmlns="http://www.w3.org/2000/svg">
<g clip-path="url(#clip0_640_27205)">
<path d="M5.02332 1.30957C5.99122 1.30957 6.11198 1.31313 6.49173 1.33094C6.87113 1.34876 7.1294 1.40825 7.35668 1.4966C7.5918 1.58708 7.78987 1.70963 7.98794 1.90734C8.16908 2.08542 8.30925 2.30083 8.39868 2.53859C8.48667 2.76552 8.54652 3.02415 8.56433 3.40354C8.58107 3.78329 8.5857 3.90405 8.5857 4.87195C8.5857 5.83985 8.58214 5.96062 8.56433 6.34037C8.54652 6.71976 8.48667 6.97803 8.39868 7.20531C8.3095 7.4432 8.1693 7.65867 7.98794 7.83657C7.8098 8.01765 7.5944 8.15781 7.35668 8.24731C7.12976 8.3353 6.87113 8.39515 6.49173 8.41296C6.11198 8.42971 5.99122 8.43434 5.02332 8.43434C4.05542 8.43434 3.93466 8.43077 3.55491 8.41296C3.17551 8.39515 2.91724 8.3353 2.68996 8.24731C2.45211 8.15806 2.23666 8.01787 2.05871 7.83657C1.87752 7.65851 1.73735 7.44309 1.64796 7.20531C1.55962 6.97839 1.50012 6.71976 1.48231 6.34037C1.46557 5.96062 1.46094 5.83985 1.46094 4.87195C1.46094 3.90405 1.4645 3.78329 1.48231 3.40354C1.50012 3.02379 1.55962 2.76587 1.64796 2.53859C1.73711 2.30069 1.87731 2.08522 2.05871 1.90734C2.23671 1.7261 2.45214 1.58591 2.68996 1.4966C2.91724 1.40825 3.17516 1.34876 3.55491 1.33094C3.93466 1.3142 4.05542 1.30957 5.02332 1.30957ZM5.02332 3.09076C4.55092 3.09076 4.09787 3.27842 3.76383 3.61246C3.42979 3.9465 3.24213 4.39955 3.24213 4.87195C3.24213 5.34435 3.42979 5.79741 3.76383 6.13145C4.09787 6.46548 4.55092 6.65314 5.02332 6.65314C5.49572 6.65314 5.94877 6.46548 6.28281 6.13145C6.61685 5.79741 6.80451 5.34435 6.80451 4.87195C6.80451 4.39955 6.61685 3.9465 6.28281 3.61246C5.94877 3.27842 5.49572 3.09076 5.02332 3.09076ZM7.33887 3.0017C7.33887 2.8836 7.29195 2.77034 7.20844 2.68683C7.12494 2.60332 7.01167 2.5564 6.89357 2.5564C6.77547 2.5564 6.66221 2.60332 6.5787 2.68683C6.49519 2.77034 6.44827 2.8836 6.44827 3.0017C6.44827 3.1198 6.49519 3.23307 6.5787 3.31658C6.66221 3.40008 6.77547 3.447 6.89357 3.447C7.01167 3.447 7.12494 3.40008 7.20844 3.31658C7.29195 3.23307 7.33887 3.1198 7.33887 3.0017ZM5.02332 3.80324C5.30676 3.80324 5.57859 3.91583 5.77902 4.11626C5.97944 4.31668 6.09204 4.58851 6.09204 4.87195C6.09204 5.15539 5.97944 5.42723 5.77902 5.62765C5.57859 5.82807 5.30676 5.94067 5.02332 5.94067C4.73988 5.94067 4.46805 5.82807 4.26762 5.62765C4.0672 5.42723 3.95461 5.15539 3.95461 4.87195C3.95461 4.58851 4.0672 4.31668 4.26762 4.11626C4.46805 3.91583 4.73988 3.80324 5.02332 3.80324Z" fill="#5F44FB"/>
</g>
<defs>
<clipPath id="clip0_640_27205">
<rect width="8.54972" height="8.54972" fill="white" transform="translate(0.748047 0.59668)"/>
</clipPath>
</defs>
</svg>
