<svg width="9" height="10" viewBox="0 0 9 10" fill="none" xmlns="http://www.w3.org/2000/svg">
<g clip-path="url(#clip0_640_27202)">
<path d="M5.93565 8.07733V5.59577H6.76675L6.89108 4.63108H5.93565V4.0155C5.93565 3.73621 6.01331 3.54562 6.41372 3.54562H6.92456V2.68281C6.67726 2.65657 6.42871 2.64385 6.18002 2.64469C5.44368 2.64469 4.9396 3.09427 4.9396 3.92003V4.63108H4.10672V5.59577H4.9396V8.07733H1.87382C1.77934 8.07733 1.68873 8.0398 1.62192 7.97299C1.55511 7.90618 1.51758 7.81557 1.51758 7.72109V2.02128C1.51758 1.9268 1.55511 1.83619 1.62192 1.76938C1.68873 1.70257 1.77934 1.66504 1.87382 1.66504H7.57363C7.66811 1.66504 7.75872 1.70257 7.82553 1.76938C7.89234 1.83619 7.92987 1.9268 7.92987 2.02128V7.72109C7.92987 7.81557 7.89234 7.90618 7.82553 7.97299C7.75872 8.0398 7.66811 8.07733 7.57363 8.07733H5.93565Z" fill="#5F44FB"/>
</g>
<defs>
<clipPath id="clip0_640_27202">
<rect width="8.54972" height="8.54972" fill="white" transform="translate(0.449219 0.59668)"/>
</clipPath>
</defs>
</svg>
