<svg width="25" height="24" viewBox="0 0 25 24" fill="none" xmlns="http://www.w3.org/2000/svg">
<g clip-path="url(#clip0_54_3265)">
<path d="M12.5 11C13.8261 11 15.0979 11.5268 16.0355 12.4645C16.9732 13.4021 17.5 14.6739 17.5 16V22H7.5V16C7.5 14.6739 8.02678 13.4021 8.96447 12.4645C9.90215 11.5268 11.1739 11 12.5 11ZM5.788 14.006C5.62886 14.5428 5.53485 15.0968 5.508 15.656L5.5 16V22H2.5V17.5C2.4998 16.6376 2.81803 15.8054 3.39363 15.1632C3.96924 14.521 4.7617 14.1139 5.619 14.02L5.789 14.006H5.788ZM19.212 14.006C20.1019 14.0602 20.9376 14.452 21.5486 15.1012C22.1596 15.7505 22.4999 16.6084 22.5 17.5V22H19.5V16C19.5 15.307 19.4 14.638 19.212 14.006ZM6 8C6.66304 8 7.29893 8.26339 7.76777 8.73223C8.23661 9.20107 8.5 9.83696 8.5 10.5C8.5 11.163 8.23661 11.7989 7.76777 12.2678C7.29893 12.7366 6.66304 13 6 13C5.33696 13 4.70107 12.7366 4.23223 12.2678C3.76339 11.7989 3.5 11.163 3.5 10.5C3.5 9.83696 3.76339 9.20107 4.23223 8.73223C4.70107 8.26339 5.33696 8 6 8ZM19 8C19.663 8 20.2989 8.26339 20.7678 8.73223C21.2366 9.20107 21.5 9.83696 21.5 10.5C21.5 11.163 21.2366 11.7989 20.7678 12.2678C20.2989 12.7366 19.663 13 19 13C18.337 13 17.7011 12.7366 17.2322 12.2678C16.7634 11.7989 16.5 11.163 16.5 10.5C16.5 9.83696 16.7634 9.20107 17.2322 8.73223C17.7011 8.26339 18.337 8 19 8ZM12.5 2C13.5609 2 14.5783 2.42143 15.3284 3.17157C16.0786 3.92172 16.5 4.93913 16.5 6C16.5 7.06087 16.0786 8.07828 15.3284 8.82843C14.5783 9.57857 13.5609 10 12.5 10C11.4391 10 10.4217 9.57857 9.67157 8.82843C8.92143 8.07828 8.5 7.06087 8.5 6C8.5 4.93913 8.92143 3.92172 9.67157 3.17157C10.4217 2.42143 11.4391 2 12.5 2Z" fill="white"/>
</g>
<defs>
<clipPath id="clip0_54_3265">
<rect width="24" height="24" fill="white" transform="translate(0.5)"/>
</clipPath>
</defs>
</svg>
