<svg width="17" height="17" viewBox="0 0 17 17" fill="none" xmlns="http://www.w3.org/2000/svg">
<g clip-path="url(#clip0_713_8432)">
<path d="M15.1673 7.166V13.8333C15.1673 14.0101 15.0971 14.1797 14.9721 14.3047C14.847 14.4298 14.6775 14.5 14.5007 14.5H9.16732V7.166H15.1673ZM7.83398 11.166V14.5H2.50065C2.32384 14.5 2.15427 14.4298 2.02925 14.3047C1.90422 14.1797 1.83398 14.0101 1.83398 13.8333V11.166H7.83398V11.166ZM7.83398 2.5V9.83267H1.83398V3.16667C1.83398 2.98986 1.90422 2.82029 2.02925 2.69526C2.15427 2.57024 2.32384 2.5 2.50065 2.5H7.83398ZM14.5007 2.5C14.6775 2.5 14.847 2.57024 14.9721 2.69526C15.0971 2.82029 15.1673 2.98986 15.1673 3.16667V5.83267H9.16732V2.5H14.5007Z" fill="#2352D5"/>
</g>
<defs>
<clipPath id="clip0_713_8432">
<rect width="16" height="16" fill="white" transform="translate(0.5 0.5)"/>
</clipPath>
</defs>
</svg>
