<svg width="44" height="45" viewBox="0 0 44 45" fill="none" xmlns="http://www.w3.org/2000/svg">
<g clip-path="url(#clip0_746_99992)">
<path d="M21.9993 23.8022L29.7781 31.5792L27.184 34.1734L23.8327 30.822V41.0612H20.166V30.8184L16.8147 34.1734L14.2205 31.5792L21.9993 23.8022ZM21.9993 4.39453C25.1471 4.39468 28.1851 5.55157 30.5357 7.64525C32.8862 9.73892 34.3855 12.6234 34.7483 15.7502C37.0295 16.3723 39.0195 17.7762 40.3705 19.7167C41.7216 21.6571 42.3478 24.0106 42.1396 26.3659C41.9315 28.7212 40.9023 30.9284 39.2318 32.6019C37.5614 34.2753 35.3561 35.3085 33.0012 35.5209L32.9993 31.8945C33.0022 29.011 31.8727 26.2416 29.854 24.1825C27.8352 22.1235 25.0887 20.9395 22.2056 20.8854C19.3225 20.8313 16.5335 21.9115 14.439 23.8934C12.3444 25.8753 11.1119 28.6004 11.0067 31.482L10.9993 31.8945V35.5209C8.64431 35.3088 6.43873 34.2758 4.76806 32.6025C3.0974 30.9293 2.06792 28.7221 1.85955 26.3667C1.65119 24.0114 2.2772 21.6577 3.62816 19.7171C4.97912 17.7765 6.96911 16.3724 9.25032 15.7502C9.61278 12.6232 11.1119 9.73853 13.4625 7.64478C15.8132 5.55103 18.8514 4.39428 21.9993 4.39453V4.39453Z" fill="#2352D5"/>
</g>
<defs>
<clipPath id="clip0_746_99992">
<rect width="44" height="44" fill="white" transform="translate(0 0.728516)"/>
</clipPath>
</defs>
</svg>
