<svg width="17" height="16" viewBox="0 0 17 16" fill="none" xmlns="http://www.w3.org/2000/svg">
<path d="M9.1666 8.66732V12.3907L10.3853 11.172L11.3286 12.1153L8.49993 14.9433L5.67126 12.1153L6.6146 11.172L7.83326 12.3907V8.66732H9.1666ZM8.49993 1.33398C9.64458 1.33404 10.7493 1.75473 11.6041 2.51606C12.4588 3.2774 13.004 4.32629 13.1359 5.46332C13.9654 5.68953 14.6891 6.20005 15.1804 6.90567C15.6717 7.61129 15.8994 8.46711 15.8237 9.32358C15.748 10.18 15.3737 10.9827 14.7663 11.5912C14.1589 12.1997 13.3569 12.5754 12.5006 12.6527L12.4999 11.334C12.501 10.2854 12.0903 9.27836 11.3562 8.52962C10.6221 7.78088 9.62333 7.35033 8.57494 7.33067C7.52656 7.311 6.51237 7.7038 5.75072 8.42448C4.98907 9.14517 4.54086 10.1361 4.5026 11.184L4.49993 11.334V12.6527C3.64356 12.5755 2.84153 12.1999 2.23402 11.5914C1.6265 10.983 1.25215 10.1804 1.17638 9.32387C1.10061 8.46738 1.32825 7.61151 1.81951 6.90583C2.31077 6.20016 3.0344 5.68958 3.86393 5.46332C3.99573 4.32624 4.54087 3.27726 5.39565 2.51589C6.25043 1.75453 7.35523 1.33389 8.49993 1.33398V1.33398Z" fill="white"/>
</svg>
