<svg width="10" height="6" viewBox="0 0 10 6" fill="none" xmlns="http://www.w3.org/2000/svg">
<path d="M5.19825 5.51354C5.03958 5.51354 4.90892 5.45754 4.80625 5.34554L0.886249 1.42554C0.764916 1.32287 0.713582 1.1922 0.732249 1.03354C0.732249 0.893538 0.783582 0.762872 0.886249 0.641538C0.998249 0.548205 1.13358 0.496871 1.29225 0.487538C1.45092 0.478205 1.57692 0.529538 1.67025 0.641538L5.19825 4.15554L8.72625 0.641538C8.82892 0.529538 8.95725 0.478205 9.11125 0.487538C9.26525 0.496871 9.39358 0.552872 9.49625 0.655538C9.59892 0.758205 9.65492 0.886538 9.66425 1.04054C9.67358 1.19454 9.62225 1.32287 9.51025 1.42554L5.59025 5.34554C5.49692 5.45754 5.36625 5.51354 5.19825 5.51354Z" fill="#4F64FF"/>
</svg>
