<svg width="10" height="6" viewBox="0 0 10 6" fill="none" xmlns="http://www.w3.org/2000/svg">
<path d="M5.36622 5.51353C5.20755 5.51353 5.07688 5.45753 4.97422 5.34553L1.05422 1.42553C0.932884 1.32287 0.881551 1.1922 0.900218 1.03353C0.900218 0.893534 0.951551 0.762868 1.05422 0.641534C1.16622 0.548201 1.30155 0.496868 1.46022 0.487535C1.61888 0.478201 1.74488 0.529534 1.83822 0.641534L5.36622 4.15553L8.89422 0.641534C8.99688 0.529534 9.12522 0.478201 9.27922 0.487535C9.43322 0.496868 9.56155 0.552868 9.66422 0.655534C9.76688 0.758201 9.82288 0.886534 9.83222 1.04053C9.84155 1.19453 9.79022 1.32287 9.67822 1.42553L5.75822 5.34553C5.66488 5.45753 5.53422 5.51353 5.36622 5.51353Z" fill="#4F64FF"/>
</svg>
