<svg width="10" height="6" viewBox="0 0 10 6" fill="none" xmlns="http://www.w3.org/2000/svg">
<path d="M5.03223 5.51353C4.87357 5.51353 4.7429 5.45753 4.64023 5.34553L0.720233 1.42553C0.5989 1.32287 0.547567 1.1922 0.566233 1.03353C0.566233 0.893534 0.617567 0.762868 0.720233 0.641534C0.832233 0.548201 0.967567 0.496868 1.12623 0.487535C1.2849 0.478201 1.4109 0.529534 1.50423 0.641534L5.03223 4.15553L8.56023 0.641534C8.6629 0.529534 8.79123 0.478201 8.94523 0.487535C9.09923 0.496868 9.22757 0.552868 9.33023 0.655534C9.4329 0.758201 9.4889 0.886534 9.49823 1.04053C9.50757 1.19453 9.45623 1.32287 9.34423 1.42553L5.42423 5.34553C5.3309 5.45753 5.20023 5.51353 5.03223 5.51353Z" fill="#4F64FF"/>
</svg>
