<svg width="10" height="6" viewBox="0 0 10 6" fill="none" xmlns="http://www.w3.org/2000/svg">
<path d="M4.69825 5.51353C4.53958 5.51353 4.40892 5.45753 4.30625 5.34553L0.386249 1.42553C0.264916 1.32287 0.213582 1.1922 0.232249 1.03353C0.232249 0.893534 0.283582 0.762868 0.386249 0.641534C0.498249 0.548201 0.633582 0.496868 0.792249 0.487535C0.950916 0.478201 1.07692 0.529534 1.17025 0.641534L4.69825 4.15553L8.22625 0.641534C8.32892 0.529534 8.45725 0.478201 8.61125 0.487535C8.76525 0.496868 8.89358 0.552868 8.99625 0.655534C9.09892 0.758201 9.15492 0.886534 9.16425 1.04053C9.17358 1.19453 9.12225 1.32287 9.01025 1.42553L5.09025 5.34553C4.99692 5.45753 4.86625 5.51353 4.69825 5.51353Z" fill="#4F64FF"/>
</svg>
