<svg width="136" height="68" viewBox="0 0 136 68" fill="none" xmlns="http://www.w3.org/2000/svg">
<path d="M55.2528 5.19524L57.8164 7.70312C56.4676 9.01927 55.3979 10.5832 54.6689 12.3051C53.9399 14.0269 53.5659 15.8727 53.5685 17.7364C53.5685 21.6561 55.1911 25.2033 57.8164 27.7697L55.2546 30.2758C53.5684 28.631 52.2311 26.6765 51.3195 24.5246C50.4079 22.3727 49.9399 20.0658 49.9424 17.7364C49.9394 15.4068 50.407 13.0996 51.3183 10.9474C52.2296 8.79519 53.5667 6.84035 55.2528 5.19524ZM80.8926 5.19524C82.5786 6.84035 83.9157 8.79519 84.827 10.9474C85.7384 13.0996 86.2059 15.4068 86.2029 17.7364C86.2059 20.066 85.7384 22.3731 84.827 24.5254C83.9157 26.6776 82.5786 28.6324 80.8926 30.2776L78.3289 27.7697C79.6778 26.4535 80.7474 24.8896 81.4764 23.1677C82.2054 21.4459 82.5794 19.6001 82.5769 17.7364C82.5769 13.8167 80.9542 10.2695 78.3289 7.70312L80.8926 5.19524ZM60.38 10.211L62.9454 12.7206C62.2709 13.3785 61.736 14.1603 61.3713 15.0211C61.0067 15.8818 60.8195 16.8046 60.8206 17.7364C60.8206 19.6962 61.6328 21.4698 62.9454 22.7522L60.38 25.2618C59.3684 24.2746 58.5662 23.1016 58.0195 21.8101C57.4728 20.5186 57.1925 19.1342 57.1945 17.7364C57.1945 14.7975 58.4129 12.1371 60.38 10.211ZM75.7653 10.211C76.7769 11.1982 77.5791 12.3712 78.1258 13.6627C78.6725 14.9542 78.9529 16.3386 78.9508 17.7364C78.9529 19.1342 78.6725 20.5186 78.1258 21.8101C77.5791 23.1016 76.7769 24.2746 75.7653 25.2618L73.1999 22.7522C73.8744 22.0943 74.4094 21.3125 74.774 20.4517C75.1387 19.591 75.3258 18.6682 75.3248 17.7364C75.3258 16.8046 75.1387 15.8818 74.774 15.0211C74.4094 14.1603 73.8744 13.3785 73.1999 12.7206L75.7653 10.211ZM68.0727 21.2836C67.111 21.2836 66.1887 20.9099 65.5087 20.2447C64.8287 19.5794 64.4466 18.6772 64.4466 17.7364C64.4466 16.7956 64.8287 15.8934 65.5087 15.2281C66.1887 14.5629 67.111 14.1892 68.0727 14.1892C69.0344 14.1892 69.9567 14.5629 70.6367 15.2281C71.3167 15.8934 71.6987 16.7956 71.6987 17.7364C71.6987 18.6772 71.3167 19.5794 70.6367 20.2447C69.9567 20.9099 69.0344 21.2836 68.0727 21.2836ZM68.0727 24.8308C69.1242 24.8308 70.0253 25.5633 70.2193 26.5743L72.6052 39.0196H63.5401L65.926 26.5743C66.12 25.5633 67.0211 24.8308 68.0727 24.8308Z" fill="#2352D5"/>
<path d="M0.500346 56.2995H2.50736V66.1643H7.83493V67.8404H0.492188L0.500346 56.2995Z" fill="black"/>
<path d="M9.90964 56.2995H11.8922V67.8404H9.90964V56.2995Z" fill="black"/>
<path d="M24.1607 56.2995L20.0406 67.8404H17.7399L13.6687 56.2995H15.586L18.8902 65.5976L22.2434 56.2995H24.1607Z" fill="black"/>
<path d="M25.9241 67.8404V56.2995H33.7237L33.7156 57.9676H27.923V61.2H33.0384V62.8441H27.9066V66.1484L33.8379 66.1563V67.8404H25.9241Z" fill="black"/>
<path d="M44.0298 68C43.4587 68 42.9012 67.9308 42.3573 67.7925C41.8134 67.6488 41.3185 67.4387 40.8725 67.162C40.4319 66.88 40.0648 66.5314 39.771 66.1164C39.4773 65.6961 39.2978 65.2066 39.2326 64.6479H41.2885C41.3756 65.0363 41.5469 65.3635 41.8025 65.6296C42.0582 65.8956 42.3764 66.0978 42.7571 66.2361C43.1433 66.3745 43.5648 66.4437 44.0217 66.4437C44.5112 66.4437 44.9518 66.3798 45.3434 66.2521C45.7404 66.1244 46.0532 65.9382 46.2816 65.6934C46.5155 65.4487 46.6324 65.148 46.6324 64.7915C46.6324 64.4776 46.5481 64.2116 46.3795 63.9934C46.2109 63.7753 45.9743 63.597 45.6697 63.4587C45.3706 63.315 45.0197 63.2006 44.6173 63.1155L42.4471 62.6526C41.5714 62.477 40.8779 62.1365 40.3666 61.631C39.8553 61.1255 39.5943 60.4524 39.5834 59.6117C39.578 58.9147 39.7656 58.3081 40.1463 57.792C40.5325 57.2706 41.0574 56.8689 41.7209 56.5869C42.3845 56.2995 43.1351 56.1559 43.9727 56.1559C44.9518 56.1559 45.7758 56.3128 46.4448 56.6268C47.1192 56.9354 47.6278 57.3504 47.9704 57.8718C48.3185 58.3933 48.4953 58.9653 48.5008 59.5878H46.4937C46.4448 59.1302 46.3034 58.7657 46.0695 58.4944C45.841 58.223 45.5473 58.0288 45.1884 57.9117C44.8294 57.7947 44.4323 57.7361 43.9972 57.7361C43.6709 57.7361 43.3663 57.7734 43.0834 57.8479C42.8006 57.9224 42.5531 58.0315 42.341 58.1751C42.1289 58.3188 41.963 58.4944 41.8433 58.7019C41.7291 58.9041 41.672 59.1355 41.672 59.3962C41.672 59.7687 41.7971 60.072 42.0473 60.3061C42.3029 60.5349 42.7788 60.7291 43.475 60.8887L45.5963 61.3516C46.2544 61.4793 46.7847 61.6709 47.1872 61.9263C47.5897 62.1817 47.897 62.4743 48.1091 62.8042C48.3213 63.1288 48.4627 63.4613 48.5334 63.8019C48.6041 64.1424 48.6394 64.467 48.6394 64.7756C48.6394 65.3768 48.4491 65.9222 48.0683 66.4117C47.693 66.9012 47.16 67.2897 46.4693 67.577C45.7839 67.859 44.9708 68 44.0298 68Z" fill="black"/>
<path d="M49.7291 58.0474V56.2995H58.932V58.0474H55.3912V67.8404H53.4005V58.0474H49.7291Z" fill="black"/>
<path d="M69.5373 67.8404H67.465L65.4336 63.1554H62.6923V67.8404H60.7097V56.2995H65.4988C66.4017 56.2995 67.1441 56.4379 67.7261 56.7146C68.3135 56.9859 68.7487 57.3717 69.0315 57.8718C69.3143 58.3667 69.4557 58.9466 69.4557 59.6117C69.4557 60.229 69.3524 60.7477 69.1457 61.1681C68.939 61.5831 68.6698 61.9236 68.338 62.1897C68.0117 62.4504 67.6609 62.6632 67.2856 62.8282L69.5373 67.8404ZM65.0501 61.615C65.8007 61.615 66.3854 61.4448 66.8042 61.1042C67.2284 60.7637 67.4406 60.2901 67.4406 59.6836C67.4406 59.0876 67.2448 58.6274 66.8532 58.3028C66.4615 57.9782 65.9448 57.816 65.303 57.816H62.6923V61.615H65.0501Z" fill="black"/>
<path d="M71.9119 67.8404V56.2995H79.7115L79.7033 57.9676H73.9107V61.2H79.0262V62.8441H73.8944V66.1484L79.8257 66.1563V67.8404H71.9119Z" fill="black"/>
<path d="M81.285 67.8404L85.5274 56.2995H87.6732L91.9075 67.8404H89.9168L88.8643 64.9432H84.3608L83.2838 67.8404H81.285ZM84.8176 63.2192H88.3748L86.6044 58.1911L84.8176 63.2192Z" fill="black"/>
<path d="M93.8859 67.8404V56.2995H96.7251L99.8172 65.1188L102.942 56.2995H105.765V67.8404H103.75V58.7897L100.641 67.8404H98.9851L95.9011 58.8455V67.8404H93.8859Z" fill="black"/>
<path d="M108.626 56.2995H110.608V67.8404H108.626V56.2995Z" fill="black"/>
<path d="M121.188 56.2995H123.17V67.8404H121.384L115.452 59.3723V67.8404H113.47V56.2995H115.412L121.188 64.5441V56.2995Z" fill="black"/>
<path d="M130.595 68C129.54 68 128.624 67.7632 127.846 67.2897C127.068 66.8161 126.47 66.1404 126.051 65.2624C125.632 64.3792 125.423 63.3257 125.423 62.1019C125.423 60.8675 125.64 59.8033 126.075 58.9094C126.51 58.0155 127.122 57.3318 127.911 56.8582C128.705 56.3793 129.635 56.1399 130.701 56.1399C131.354 56.1399 131.955 56.2463 132.504 56.4592C133.059 56.672 133.543 56.9593 133.957 57.3211C134.375 57.6829 134.704 58.0953 134.944 58.5582C135.183 59.0211 135.316 59.5027 135.344 60.0028H133.247C133.171 59.6091 133.016 59.2473 132.782 58.9174C132.553 58.5822 132.257 58.3135 131.892 58.1113C131.533 57.9091 131.123 57.808 130.66 57.808C130.068 57.808 129.537 57.9543 129.07 58.2469C128.607 58.5396 128.243 58.9998 127.976 59.6277C127.715 60.2502 127.585 61.059 127.585 62.054C127.585 62.8415 127.666 63.5066 127.829 64.0493C127.998 64.5867 128.226 65.0203 128.515 65.3502C128.808 65.6748 129.146 65.9116 129.526 66.0606C129.907 66.2042 130.31 66.2761 130.734 66.2761C131.147 66.2761 131.512 66.2069 131.827 66.0685C132.143 65.9302 132.409 65.7493 132.627 65.5258C132.85 65.3023 133.021 65.0629 133.141 64.8075C133.266 64.5468 133.339 64.2941 133.361 64.0493L133.434 63.2033H130.799V61.8305L135.507 61.8465V67.8404H134.103V66.2202C133.902 66.5128 133.647 66.7948 133.337 67.0662C133.032 67.3376 132.657 67.561 132.211 67.7366C131.77 67.9122 131.232 68 130.595 68Z" fill="black"/>
</svg>
