<svg width="10" height="6" viewBox="0 0 10 6" fill="none" xmlns="http://www.w3.org/2000/svg">
<path d="M4.86622 5.51353C4.70755 5.51353 4.57688 5.45753 4.47422 5.34553L0.554218 1.42553C0.432884 1.32287 0.381551 1.1922 0.400218 1.03353C0.400218 0.893534 0.451551 0.762868 0.554218 0.641534C0.666218 0.548201 0.801551 0.496868 0.960218 0.487535C1.11888 0.478201 1.24488 0.529534 1.33822 0.641534L4.86622 4.15553L8.39422 0.641534C8.49688 0.529534 8.62522 0.478201 8.77922 0.487535C8.93322 0.496868 9.06155 0.552868 9.16422 0.655534C9.26688 0.758201 9.32288 0.886534 9.33222 1.04053C9.34155 1.19453 9.29022 1.32287 9.17822 1.42553L5.25822 5.34553C5.16488 5.45753 5.03422 5.51353 4.86622 5.51353Z" fill="#4F64FF"/>
</svg>
