<svg width="9" height="6" viewBox="0 0 9 6" fill="none" xmlns="http://www.w3.org/2000/svg">
<path d="M4.53223 5.51354C4.37357 5.51354 4.2429 5.45754 4.14023 5.34554L0.220233 1.42554C0.0989 1.32287 0.0475667 1.1922 0.0662333 1.03354C0.0662333 0.893538 0.117567 0.762872 0.220233 0.641538C0.332233 0.548205 0.467567 0.496871 0.626233 0.487538C0.7849 0.478205 0.9109 0.529538 1.00423 0.641538L4.53223 4.15554L8.06023 0.641538C8.1629 0.529538 8.29123 0.478205 8.44523 0.487538C8.59923 0.496871 8.72757 0.552872 8.83023 0.655538C8.9329 0.758205 8.9889 0.886538 8.99823 1.04054C9.00757 1.19454 8.95623 1.32287 8.84423 1.42554L4.92423 5.34554C4.8309 5.45754 4.70023 5.51354 4.53223 5.51354Z" fill="#4F64FF"/>
</svg>
