<svg width="10" height="6" viewBox="0 0 10 6" fill="none" xmlns="http://www.w3.org/2000/svg">
<path d="M5.03223 5.51354C4.87357 5.51354 4.7429 5.45754 4.64023 5.34554L0.720233 1.42554C0.5989 1.32287 0.547567 1.1922 0.566233 1.03354C0.566233 0.893538 0.617567 0.762872 0.720233 0.641538C0.832233 0.548205 0.967567 0.496871 1.12623 0.487538C1.2849 0.478205 1.4109 0.529538 1.50423 0.641538L5.03223 4.15554L8.56023 0.641538C8.6629 0.529538 8.79123 0.478205 8.94523 0.487538C9.09923 0.496871 9.22757 0.552872 9.33023 0.655538C9.4329 0.758205 9.4889 0.886538 9.49823 1.04054C9.50757 1.19454 9.45623 1.32287 9.34423 1.42554L5.42423 5.34554C5.3309 5.45754 5.20023 5.51354 5.03223 5.51354Z" fill="#4F64FF"/>
</svg>
