<svg width="10" height="6" viewBox="0 0 10 6" fill="none" xmlns="http://www.w3.org/2000/svg">
<path d="M5.03223 5.51343C4.87357 5.51343 4.7429 5.45743 4.64023 5.34543L0.720233 1.42543C0.5989 1.32276 0.547567 1.19209 0.566233 1.03343C0.566233 0.893428 0.617567 0.762761 0.720233 0.641428C0.832233 0.548094 0.967567 0.496761 1.12623 0.487428C1.2849 0.478094 1.4109 0.529428 1.50423 0.641428L5.03223 4.15543L8.56023 0.641428C8.6629 0.529428 8.79123 0.478094 8.94523 0.487428C9.09923 0.496761 9.22757 0.552761 9.33023 0.655428C9.4329 0.758094 9.4889 0.886428 9.49823 1.04043C9.50757 1.19443 9.45623 1.32276 9.34423 1.42543L5.42423 5.34543C5.3309 5.45743 5.20023 5.51343 5.03223 5.51343Z" fill="#4F64FF"/>
</svg>
