<svg width="10" height="6" viewBox="0 0 10 6" fill="none" xmlns="http://www.w3.org/2000/svg">
<path d="M5.19825 5.51353C5.03958 5.51353 4.90892 5.45753 4.80625 5.34553L0.886249 1.42553C0.764916 1.32287 0.713582 1.1922 0.732249 1.03353C0.732249 0.893534 0.783582 0.762868 0.886249 0.641534C0.998249 0.548201 1.13358 0.496868 1.29225 0.487535C1.45092 0.478201 1.57692 0.529534 1.67025 0.641534L5.19825 4.15553L8.72625 0.641534C8.82892 0.529534 8.95725 0.478201 9.11125 0.487535C9.26525 0.496868 9.39358 0.552868 9.49625 0.655534C9.59892 0.758201 9.65492 0.886534 9.66425 1.04053C9.67358 1.19453 9.62225 1.32287 9.51025 1.42553L5.59025 5.34553C5.49692 5.45753 5.36625 5.51353 5.19825 5.51353Z" fill="#4F64FF"/>
</svg>
