<svg width="9" height="6" viewBox="0 0 9 6" fill="none" xmlns="http://www.w3.org/2000/svg">
<path d="M4.53223 5.51353C4.37357 5.51353 4.2429 5.45753 4.14023 5.34553L0.220233 1.42553C0.0989 1.32287 0.0475667 1.1922 0.0662333 1.03353C0.0662333 0.893534 0.117567 0.762868 0.220233 0.641534C0.332233 0.548201 0.467567 0.496868 0.626233 0.487535C0.7849 0.478201 0.9109 0.529534 1.00423 0.641534L4.53223 4.15553L8.06023 0.641534C8.1629 0.529534 8.29123 0.478201 8.44523 0.487535C8.59923 0.496868 8.72757 0.552868 8.83023 0.655534C8.9329 0.758201 8.9889 0.886534 8.99823 1.04053C9.00757 1.19453 8.95623 1.32287 8.84423 1.42553L4.92423 5.34553C4.8309 5.45753 4.70023 5.51353 4.53223 5.51353Z" fill="#4F64FF"/>
</svg>
