<svg width="10" height="6" viewBox="0 0 10 6" fill="none" xmlns="http://www.w3.org/2000/svg">
<path d="M4.86622 5.51354C4.70755 5.51354 4.57688 5.45754 4.47422 5.34554L0.554218 1.42554C0.432884 1.32287 0.381551 1.1922 0.400218 1.03354C0.400218 0.893538 0.451551 0.762872 0.554218 0.641538C0.666218 0.548205 0.801551 0.496871 0.960218 0.487538C1.11888 0.478205 1.24488 0.529538 1.33822 0.641538L4.86622 4.15554L8.39422 0.641538C8.49688 0.529538 8.62522 0.478205 8.77922 0.487538C8.93322 0.496871 9.06155 0.552872 9.16422 0.655538C9.26688 0.758205 9.32288 0.886538 9.33222 1.04054C9.34155 1.19454 9.29022 1.32287 9.17822 1.42554L5.25822 5.34554C5.16488 5.45754 5.03422 5.51354 4.86622 5.51354Z" fill="#4F64FF"/>
</svg>
