<svg width="42" height="68" viewBox="0 0 42 68" fill="none" xmlns="http://www.w3.org/2000/svg">
<path d="M16.4393 19.8744H20.1463C22.1852 19.8744 24.1405 20.6937 25.5822 22.1521C27.0239 23.6106 27.8338 25.5886 27.8338 27.6512H15.8738L15.8755 29.3793H29.5422V27.6512C29.5368 25.8123 29.0116 24.0134 28.0286 22.4666H32.9588C34.5737 22.4662 36.1555 22.9288 37.521 23.8009C38.8865 24.6729 39.9796 25.9187 40.6737 27.3937C36.6335 32.7873 30.0923 36.292 22.7088 36.292C17.9921 36.292 13.9963 35.2724 10.7505 33.4838V17.4048C12.8289 17.706 14.7915 18.558 16.4393 19.8744ZM7.33385 15.5539C7.75228 15.554 8.15613 15.7094 8.46882 15.9907C8.7815 16.2719 8.98127 16.6595 9.03022 17.0799L9.04218 17.2821V32.8357C9.04218 33.294 8.8622 33.7336 8.54182 34.0577C8.22145 34.3818 7.78693 34.5639 7.33385 34.5639H3.91718C3.4641 34.5639 3.02958 34.3818 2.70921 34.0577C2.38883 33.7336 2.20885 33.294 2.20885 32.8357V17.2821C2.20885 16.8238 2.38883 16.3842 2.70921 16.0601C3.02958 15.736 3.4641 15.5539 3.91718 15.5539H7.33385ZM23.8124 6.17856L24.4172 6.79206L25.0219 6.18028C25.4179 5.77627 25.8889 5.45536 26.4079 5.23598C26.9268 5.01659 27.4835 4.90306 28.0459 4.9019C28.6083 4.90073 29.1654 5.01196 29.6852 5.22919C30.2051 5.44642 30.6774 5.76538 31.075 6.16775C31.4726 6.57012 31.7878 7.04798 32.0024 7.5739C32.217 8.09982 32.3268 8.66344 32.3255 9.2324C32.3241 9.80136 32.2118 10.3645 31.9947 10.8894C31.7777 11.4143 31.4604 11.8906 31.0609 12.2911L24.4172 19.0103L17.7718 12.2877C17.3724 11.8871 17.0552 11.4106 16.8383 10.8856C16.6214 10.3607 16.5092 9.79754 16.5081 9.22858C16.5069 8.65962 16.6169 8.09604 16.8316 7.57018C17.0463 7.04432 17.3616 6.56655 17.7594 6.16429C18.1571 5.76203 18.6295 5.44321 19.1494 5.22613C19.6693 5.00904 20.2264 4.89798 20.7888 4.8993C21.3513 4.90063 21.9079 5.01432 22.4268 5.23385C22.9456 5.45338 23.4165 5.77443 23.8124 6.17856Z" fill="#2352D5"/>
<path d="M8.3925 68C7.39825 68 6.53469 67.7693 5.80181 67.3079C5.06894 66.8464 4.50519 66.188 4.11056 65.3326C3.71594 64.4719 3.51863 63.4454 3.51863 62.2529C3.51863 61.0501 3.72362 60.0132 4.13363 59.1422C4.54362 58.2712 5.12019 57.605 5.86331 57.1436C6.61156 56.677 7.48794 56.4437 8.49244 56.4437C9.10744 56.4437 9.67375 56.5474 10.1914 56.7547C10.7141 56.9621 11.1702 57.2421 11.5597 57.5946C11.9544 57.9472 12.2644 58.349 12.4899 58.8C12.7154 59.2511 12.841 59.7203 12.8666 60.2076H10.8909C10.8192 59.824 10.6731 59.4714 10.4528 59.15C10.2375 58.8234 9.95819 58.5616 9.61481 58.3645C9.27656 58.1675 8.88963 58.069 8.454 58.069C7.89538 58.069 7.39569 58.2116 6.95494 58.4967C6.51931 58.7819 6.17594 59.2304 5.92481 59.8421C5.67881 60.4487 5.55581 61.2368 5.55581 62.2063C5.55581 62.9736 5.63269 63.6217 5.78644 64.1505C5.94531 64.6741 6.16056 65.0967 6.43219 65.4181C6.70894 65.7344 7.02669 65.9651 7.38544 66.1102C7.74419 66.2502 8.12344 66.3202 8.52319 66.3202C8.91269 66.3202 9.25606 66.2528 9.55331 66.118C9.85056 65.9832 10.1017 65.8069 10.3067 65.5892C10.5168 65.3714 10.6783 65.1381 10.791 64.8893C10.9089 64.6352 10.9781 64.389 10.9986 64.1505L11.0677 63.3261H8.58469V61.9885L13.0204 62.0041V67.8445H11.6981V66.2658C11.5085 66.5509 11.2676 66.8257 10.9755 67.0901C10.6885 67.3545 10.3349 67.5723 9.91463 67.7434C9.4995 67.9145 8.99212 68 8.3925 68Z" fill="black"/>
<path d="M15.5737 56.5992H17.4418V67.8445H15.5737V56.5992Z" fill="black"/>
<path d="M29.0018 56.5992L25.1197 67.8445H22.9518L19.1157 56.5992H20.9223L24.0357 65.6592L27.1953 56.5992H29.0018Z" fill="black"/>
<path d="M30.6634 67.8445V56.5992H38.0127L38.005 58.2246H32.5469V61.3742H37.3669V62.9762H32.5315V66.1958L38.1203 66.2036V67.8445H30.6634Z" fill="black"/>
</svg>
