<svg width="340" height="152" viewBox="0 0 340 152" fill="none" xmlns="http://www.w3.org/2000/svg">
<g clip-path="url(#clip0_748_100088)">
<g opacity="0.6">
<rect x="0.724609" y="20.0391" width="201.163" height="113.062" rx="14.6834" fill="#F2F2F2"/>
</g>
<g opacity="0.6">
<rect x="138.381" y="20.0391" width="201.163" height="113.062" rx="14.6834" fill="#F2F2F2"/>
</g>
<rect x="35.9648" y="0.951172" width="268.339" height="150.872" rx="14.6834" fill="white"/>
<circle cx="170.134" cy="76.5708" r="19.0884" fill="#2352D5"/>
<path fill-rule="evenodd" clip-rule="evenodd" d="M169.031 72.4023C167.907 72.4023 166.995 73.3139 166.995 74.4384V79.2137C166.995 79.5742 167.091 79.9282 167.272 80.2396C167.839 81.2109 169.086 81.539 170.057 80.9724L174.15 78.5848C174.454 78.4078 174.706 78.1554 174.883 77.852C175.45 76.8807 175.122 75.6339 174.15 75.0673L170.057 72.6797C169.746 72.4981 169.392 72.4023 169.031 72.4023Z" fill="white"/>
</g>
<defs>
<clipPath id="clip0_748_100088">
<rect width="338.819" height="150.872" fill="white" transform="translate(0.724609 0.951172)"/>
</clipPath>
</defs>
</svg>
