<svg width="44" height="44" viewBox="0 0 44 44" fill="none" xmlns="http://www.w3.org/2000/svg">
<path d="M10.7962 29.3335H3.66634C3.18011 29.3335 2.7138 29.1404 2.36998 28.7966C2.02616 28.4527 1.83301 27.9864 1.83301 27.5002V16.5002C1.83301 16.014 2.02616 15.5477 2.36998 15.2038C2.7138 14.86 3.18011 14.6669 3.66634 14.6669H10.7962L20.5018 6.72487C20.6361 6.61477 20.7989 6.54509 20.9713 6.52392C21.1437 6.50276 21.3185 6.53099 21.4754 6.60533C21.6324 6.67967 21.765 6.79706 21.8578 6.94383C21.9506 7.0906 21.9998 7.26071 21.9997 7.43437V36.566C21.9998 36.7397 21.9506 36.9098 21.8578 37.0566C21.765 37.2033 21.6324 37.3207 21.4754 37.3951C21.3185 37.4694 21.1437 37.4976 20.9713 37.4765C20.7989 37.4553 20.6361 37.3856 20.5018 37.2755L10.798 29.3335H10.7962ZM35.5773 36.9125L32.9813 34.3165C34.7193 32.7702 36.1097 30.8729 37.0609 28.75C38.0121 26.627 38.5025 24.3265 38.4997 22.0002C38.5019 19.5547 37.9595 17.1394 36.9117 14.9297C35.864 12.72 34.3372 10.7715 32.4423 9.22554L35.0457 6.6222C37.2795 8.51337 39.074 10.8691 40.3038 13.5251C41.5336 16.181 42.1692 19.0733 42.1663 22.0002C42.1663 27.909 39.6253 33.2239 35.5773 36.9125ZM29.0818 30.417L26.4748 27.81C27.3649 27.1257 28.0856 26.2457 28.5812 25.2383C29.0768 24.2309 29.334 23.1229 29.333 22.0002C29.333 19.3785 27.958 17.0777 25.8863 15.7815L28.5245 13.1434C29.9132 14.1649 31.0419 15.4989 31.8193 17.0376C32.5968 18.5762 33.0011 20.2763 32.9997 22.0002C32.9997 25.3772 31.478 28.3985 29.0818 30.417Z" fill="#2352D5"/>
</svg>
