<svg width="15" height="14" viewBox="0 0 15 14" fill="none" xmlns="http://www.w3.org/2000/svg">
<path d="M0.806641 7.66154H4.45797C4.57205 9.77277 5.24501 11.8158 6.40797 13.5815C4.95126 13.3527 3.61144 12.6476 2.59799 11.5765C1.58453 10.5054 0.954586 9.12867 0.806641 7.66154ZM0.806641 6.3282C0.954586 4.86107 1.58453 3.48432 2.59799 2.41321C3.61144 1.3421 4.95126 0.637018 6.40797 0.408203C5.24501 2.17394 4.57205 4.21697 4.45797 6.3282H0.806641ZM14.0733 6.3282H10.422C10.3079 4.21697 9.63494 2.17394 8.47197 0.408203C9.92869 0.637018 11.2685 1.3421 12.282 2.41321C13.2954 3.48432 13.9254 4.86107 14.0733 6.3282ZM14.0733 7.66154C13.9254 9.12867 13.2954 10.5054 12.282 11.5765C11.2685 12.6476 9.92869 13.3527 8.47197 13.5815C9.63494 11.8158 10.3079 9.77277 10.422 7.66154H14.074H14.0733ZM5.79331 7.66154H9.08664C8.97691 9.46119 8.41017 11.2032 7.43997 12.7229C6.46977 11.2032 5.90304 9.46119 5.79331 7.66154ZM5.79331 6.3282C5.90304 4.52855 6.46977 2.78658 7.43997 1.26687C8.41017 2.78658 8.97691 4.52855 9.08664 6.3282H5.79331Z" fill="white"/>
</svg>
